<?xml version="1.0" encoding="utf-8"?>
<!-- Generator: Adobe Illustrator 17.0.0, SVG Export Plug-In . SVG Version: 6.00 Build 0)  -->
<!DOCTYPE svg PUBLIC "-//W3C//DTD SVG 1.1//EN" "http://www.w3.org/Graphics/SVG/1.1/DTD/svg11.dtd">
<svg version="1.1" id="Layer_1" xmlns="http://www.w3.org/2000/svg" xmlns:xlink="http://www.w3.org/1999/xlink" x="0px" y="0px"
	 width="91px" height="91px" viewBox="0 0 91 91" enable-background="new 0 0 91 91" xml:space="preserve">
<path fill="#FFFFFF" stroke="#FFFFFF" stroke-width="0.5669" stroke-miterlimit="22.9256" d="M55.065,9.485
	C38.723,16.427,3.907,29.644,12.103,41.581s51.689,1.764,55.701,3.63c9.026,3.127-25.708,20.108-45.43,29.711
	c0.893,0.777,1.53,1.332,2.424,2.11c21.366-9.125,42.964-18.62,51.88-28.059s5.502-16.079-1.281-15.75
	c-17.971,0.873-40.081,4.817-43.34,0.949c-3.502-4.157,14.966-15.139,42.098-23.768C63.457,8.402,54.793,5.9,45.632,1
	c-17.92,8.242-25.256,9.466-44.614,11.561c-0.547,36.067,11.515,52.255,18.73,59.773c13.734-5.848,20.259-9.375,32.884-17.695
	c-12.608,5.565-17.593,8.356-32.628,11.097C11.179,55.887,5.685,32.635,5.7,16.026c16.189-1.911,27-5.601,39.932-10.765
	C48.475,6.878,51.479,8.169,55.065,9.485z"/>
<path fill="#FFFFFF" stroke="#FFFFFF" stroke-width="0.5669" stroke-miterlimit="22.9256" d="M46.976,25.255
	c11.948-6.005,19.045-8.933,31.687-14.156c4.14,0.725,5.966,0.836,11.313,1.437C87.7,37.533,88.532,71.569,45.81,89.434
	c-7.788-3.337-12.179-5.615-18.165-10.163c15.925-8.052,29.882-13.107,43.992-24.805c-7,8.275-17.396,15.541-37.01,24.824
	c3.668,2.026,6.366,3.516,11.005,6.078c28.864-10.852,41.925-39.46,40.849-70.085C79.689,13.614,60.212,21.261,46.976,25.255z"/>
</svg>
