<svg xmlns="http://www.w3.org/2000/svg" width="591.262" height="320.387" viewBox="0 0 591.262 320.387"><g opacity="0.647"><path d="M326.544,729.885a78.875,78.875,0,0,0,.81,12.557,14.2,14.2,0,0,0,3.241,7.494,12.338,12.338,0,0,0,6.683,3.544,56.288,56.288,0,0,0,11.342.912v7.7H283v-7.7a57.87,57.87,0,0,0,11.443-.912,12.737,12.737,0,0,0,6.785-3.443,13.335,13.335,0,0,0,3.24-7.089,68.964,68.964,0,0,0,.81-11.645V636.924a65.173,65.173,0,0,0-.911-12.253,13.806,13.806,0,0,0-3.24-6.988,11.07,11.07,0,0,0-6.177-3.139,56.326,56.326,0,0,0-9.924-.709v-7.7h61.569v7.7a49.5,49.5,0,0,0-9.924.811,10.963,10.963,0,0,0-6.177,3.443,14.615,14.615,0,0,0-3.139,7.392,80.363,80.363,0,0,0-.81,12.861v50.025l50.632-60.961q4.05-5.063,4.05-7.9,0-5.671-11.544-5.672v-7.7h48.809v7.493a43.333,43.333,0,0,0-7.089.507,18.482,18.482,0,0,0-5.974,2.126,31.285,31.285,0,0,0-6.177,4.658q-3.245,3.038-7.494,7.9l-38.075,43.949,59.138,71.088q5.063,5.874,9.519,8.2t11.949,2.329v7.7H372.113v-7.7q7.9,0,11.341-1.316t3.443-4.152a11.127,11.127,0,0,0-1.62-4.658,49.186,49.186,0,0,0-5.266-7.494l-39.493-48.606-13.974,16.2Z" transform="translate(-275.623 -545.24)" fill="#fff"/><path d="M638.133,723.809a123.276,123.276,0,0,0,.81,16,20.337,20.337,0,0,0,3.139,9.114,10.93,10.93,0,0,0,6.684,4.253,60.044,60.044,0,0,0,11.442,1.216v7.7H594.59v-7.7a54.4,54.4,0,0,0,11.443-1.317,12.292,12.292,0,0,0,6.785-4.152,17.707,17.707,0,0,0,3.24-8.607,110.151,110.151,0,0,0,.81-15.088V643a115.429,115.429,0,0,0-.709-14.076,20.94,20.94,0,0,0-2.835-8.81,11.271,11.271,0,0,0-6.177-4.557,43.417,43.417,0,0,0-10.532-1.722v-7.7h61.569v7.7a34.614,34.614,0,0,0-10.43,1.62,11.6,11.6,0,0,0-6.076,4.76,22.153,22.153,0,0,0-2.835,9.215,128.624,128.624,0,0,0-.709,14.987Z" transform="translate(-429.448 -545.24)" fill="#fff"/><path d="M892.031,764.112l-96.2-126.783h-.811v86.48a140.054,140.054,0,0,0,.709,16,21.25,21.25,0,0,0,2.836,9.114,9.942,9.942,0,0,0,6.076,4.252,49.677,49.677,0,0,0,10.43,1.216v7.7H760.59v-7.7a54.375,54.375,0,0,0,11.442-1.316,12.288,12.288,0,0,0,6.785-4.152,17.7,17.7,0,0,0,3.24-8.608,110.047,110.047,0,0,0,.81-15.088V643a114.935,114.935,0,0,0-.709-14.076,20.92,20.92,0,0,0-2.835-8.811,11.27,11.27,0,0,0-6.177-4.556,43.42,43.42,0,0,0-10.532-1.722v-7.7h40.1l88.5,118.074h.81v-79.8a141.52,141.52,0,0,0-.709-15.9q-.713-5.974-2.835-9.215a9.929,9.929,0,0,0-6.076-4.253,49.745,49.745,0,0,0-10.43-1.215v-7.7h54.48v7.7a53.509,53.509,0,0,0-11.443,1.317,12.246,12.246,0,0,0-6.785,4.151q-2.43,3.038-3.24,8.709a110.215,110.215,0,0,0-.81,14.988V764.112Z" transform="translate(-511.399 -545.24)" fill="#fff"/><path d="M1197.521,762.136a83.343,83.343,0,0,1-30.987-5.469,66.3,66.3,0,0,1-23.493-15.493,67.065,67.065,0,0,1-14.886-24.405,94.126,94.126,0,0,1-5.165-32,95.476,95.476,0,0,1,5.67-33.62,77.36,77.36,0,0,1,15.9-26.126,70.145,70.145,0,0,1,24.506-16.911,80.665,80.665,0,0,1,31.493-5.975,74.432,74.432,0,0,1,22.885,3.443,108.941,108.941,0,0,1,23.292,11.139l4.253-12.557h7.088l-2.633,46.581h-9.721a36.581,36.581,0,0,0-3.747-17.113,35.149,35.149,0,0,0-9.822-11.848,41.015,41.015,0,0,0-13.874-6.886,57.456,57.456,0,0,0-15.9-2.228,48.7,48.7,0,0,0-22.076,4.861,45.227,45.227,0,0,0-16.4,13.974,66.548,66.548,0,0,0-10.227,22.279,114.668,114.668,0,0,0-3.545,29.771q0,32.6,13.569,50.125t39.29,17.519a60.2,60.2,0,0,0,17.417-2.329,42.83,42.83,0,0,0,13.064-6.278,27.16,27.16,0,0,0,8.1-9.114,22.88,22.88,0,0,0,2.734-10.835q0-11.752-4.761-15.9t-15.492-4.152v-7.7h57.518v7.7a34.046,34.046,0,0,0-8.1.81,9.991,9.991,0,0,0-5.165,2.937,11.579,11.579,0,0,0-2.633,5.569,44.061,44.061,0,0,0-.71,8.709V743.3q-3.856,0-6.988.3a31.061,31.061,0,0,0-6.583,1.417,66.377,66.377,0,0,0-7.594,3.038q-4.156,1.918-9.823,5.164a67.471,67.471,0,0,1-16.3,6.481A78.933,78.933,0,0,1,1197.521,762.136Z" transform="translate(-690.307 -543.263)" fill="#fff"/><path d="M286.83,1016.52a45.311,45.311,0,0,0,7.742-.557,13.47,13.47,0,0,0,4.962-1.751,6.924,6.924,0,0,0,2.653-3.084,11.174,11.174,0,0,0,.815-4.45h2.992v23.361H303a12.314,12.314,0,0,0-.729-4.451,6.658,6.658,0,0,0-2.567-3.124,13.868,13.868,0,0,0-4.962-1.879,40.3,40.3,0,0,0-7.914-.643v19.336a13.418,13.418,0,0,0,.683,4.664,6.191,6.191,0,0,0,2.354,3,10.916,10.916,0,0,0,4.405,1.625,40.626,40.626,0,0,0,6.759.471,39.307,39.307,0,0,0,7.686-.643,13.524,13.524,0,0,0,5.306-2.183,11.138,11.138,0,0,0,3.423-4.05,27.174,27.174,0,0,0,2.137-6.289h3.256l-1.286,16.86H268.43v-3.256a25.409,25.409,0,0,0,4.835-.505,5.807,5.807,0,0,0,2.866-1.454,5.415,5.415,0,0,0,1.372-2.911,28.843,28.843,0,0,0,.339-4.876V999.852a31.515,31.515,0,0,0-.3-4.83,5.9,5.9,0,0,0-1.2-2.911,4.554,4.554,0,0,0-2.607-1.454,29.348,29.348,0,0,0-4.45-.556V986.85h49.458l.77,15.058H316.52a17.66,17.66,0,0,0-1.671-5.6,9.04,9.04,0,0,0-3.165-3.463,13.515,13.515,0,0,0-5.089-1.8,45.862,45.862,0,0,0-7.448-.507H288.283a1.287,1.287,0,0,0-1.453,1.459Z" transform="translate(-268.43 -733.188)" fill="#fff"/><path d="M389.94,1052.694v-3.254a33.449,33.449,0,0,0,5.265-.471,5.992,5.992,0,0,0,3.119-1.454,5.457,5.457,0,0,0,1.518-2.911,24.85,24.85,0,0,0,.385-4.917V999.81a31.545,31.545,0,0,0-.3-4.83,5.908,5.908,0,0,0-1.2-2.912,4.56,4.56,0,0,0-2.608-1.453,29.35,29.35,0,0,0-4.451-.558v-3.25h30.035a38.679,38.679,0,0,1,14.248,2.567,34.277,34.277,0,0,1,11.3,7.089,32.134,32.134,0,0,1,7.4,10.784,34.457,34.457,0,0,1,2.648,13.6,32.645,32.645,0,0,1-2.481,12.876,29.041,29.041,0,0,1-6.972,10.054,32.128,32.128,0,0,1-10.739,6.548,38.528,38.528,0,0,1-13.671,2.354ZM410.648,991a1.281,1.281,0,0,0-1.438,1.474v46.292q0,9.754,12.749,9.753,11.716,0,17.969-6.973t6.243-20.511a43.137,43.137,0,0,0-1.711-12.659,26.946,26.946,0,0,0-4.922-9.412,21.565,21.565,0,0,0-7.747-5.9,24.639,24.639,0,0,0-10.268-2.026Z" transform="translate(-328.417 -733.166)" fill="#fff"/><path d="M595.105,1026.132a48.009,48.009,0,0,1-1.321,11.9,20.931,20.931,0,0,1-4.279,8.557,18.429,18.429,0,0,1-7.661,5.175,32.757,32.757,0,0,1-11.383,1.752,43.431,43.431,0,0,1-11.037-1.241,18.5,18.5,0,0,1-7.874-4.106,17.194,17.194,0,0,1-4.7-7.482,36.863,36.863,0,0,1-1.518-11.383v-22.592q0-6.33-.3-9.751a8.638,8.638,0,0,0-1.757-5.063,5.157,5.157,0,0,0-2.78-1.52,22.6,22.6,0,0,0-4.663-.385v-3.25h29.179v3.25a26.637,26.637,0,0,0-4.709.339,4.47,4.47,0,0,0-2.825,1.712,9.6,9.6,0,0,0-1.519,4.922q-.329,3.4-.339,9.711v23.291a30.283,30.283,0,0,0,.9,7.746,14.051,14.051,0,0,0,2.952,5.731,12.693,12.693,0,0,0,5.346,3.545,23.832,23.832,0,0,0,8.1,1.2q8.557,0,12.836-4.75t4.278-13.99v-20.622a83.414,83.414,0,0,0-.6-11.555q-.6-3.96-2.223-5.57a5.619,5.619,0,0,0-3-1.412,27.887,27.887,0,0,0-4.451-.3v-3.25h24.81v3.25a19.547,19.547,0,0,0-4.491.426,4.667,4.667,0,0,0-2.78,1.883,12.224,12.224,0,0,0-1.71,5.6,103.9,103.9,0,0,0-.431,10.913Z" transform="translate(-400.44 -733.133)" fill="#fff"/><path d="M738.669,985.963h2.395l.769,19.681h-3.164a21.065,21.065,0,0,0-7.276-11.812,20.278,20.278,0,0,0-13.008-4.278,20.62,20.62,0,0,0-9.326,2.076,19.1,19.1,0,0,0-6.921,5.883,28.2,28.2,0,0,0-4.32,9.413A48.541,48.541,0,0,0,696.3,1019.5q0,13.788,5.732,21.18t16.6,7.4q16.512,0,21.22-17.544h3.509v21.312H740.37l-1.97-6.765q-8.987,7.6-21.736,7.595a35.6,35.6,0,0,1-13.134-2.308,28.348,28.348,0,0,1-10-6.526,28.95,28.95,0,0,1-6.42-10.31,38.49,38.49,0,0,1-2.263-13.519,40.3,40.3,0,0,1,2.4-14.208,32.65,32.65,0,0,1,6.713-11.038,29.771,29.771,0,0,1,10.354-7.145,34.2,34.2,0,0,1,13.307-2.531,31.387,31.387,0,0,1,9.671,1.453,46.16,46.16,0,0,1,9.837,4.7Z" transform="translate(-474.004 -732.322)" fill="#fff"/><path d="M851.5,1028.815H828.652q-1.458,3.508-2.481,6.2t-1.671,4.663a27.965,27.965,0,0,0-.9,3.336,12.505,12.505,0,0,0-.258,2.222,3.5,3.5,0,0,0,1.519,3.3,10.758,10.758,0,0,0,5.134.9v3.257H809.23v-3.257a20.474,20.474,0,0,0,3.377-.684,8.226,8.226,0,0,0,2.481-1.2,7.456,7.456,0,0,0,1.884-2.026,20.139,20.139,0,0,0,1.584-3.037l22.248-55.7h3.681l19.423,48.258q1.964,4.8,3.422,7.661a18.782,18.782,0,0,0,2.82,4.319,6.347,6.347,0,0,0,2.958,1.884,14.792,14.792,0,0,0,3.807.425v3.34h-27.9v-3.34q4.556,0,6.248-.856a2.92,2.92,0,0,0,1.711-2.821,13.622,13.622,0,0,0-.086-1.583,12.719,12.719,0,0,0-.3-1.585c-.143-.567-.345-1.209-.6-1.924s-.587-1.555-1.012-2.531Zm-21.118-4.284h19.493l-9.5-25.24Z" transform="translate(-535.412 -733.158)" fill="#fff"/><path d="M997.352,1003.149h-3.508a21.894,21.894,0,0,0-1.2-6.158,8.963,8.963,0,0,0-2.694-3.893,10.646,10.646,0,0,0-4.409-2.025,29.1,29.1,0,0,0-6.33-.6q-3.168,0-5.093.132a12.572,12.572,0,0,0-2.952.47,2.455,2.455,0,0,0-1.327.811,2.261,2.261,0,0,0-.3,1.24v45.782a24.729,24.729,0,0,0,.385,4.7,6.383,6.383,0,0,0,1.519,3.211,7.286,7.286,0,0,0,3.337,1.883,23.262,23.262,0,0,0,5.777.724v3.255H948.234v-3.255a23.739,23.739,0,0,0,5.821-.726,7.3,7.3,0,0,0,3.379-1.882,6.4,6.4,0,0,0,1.519-3.211,24.769,24.769,0,0,0,.385-4.7V993.139a2.323,2.323,0,0,0-.3-1.241,2.4,2.4,0,0,0-1.2-.81,9.5,9.5,0,0,0-2.532-.472q-1.63-.129-4.364-.13-3.343,0-6.208.257a11.725,11.725,0,0,0-4.961,1.519,8.864,8.864,0,0,0-3.378,3.808,16.888,16.888,0,0,0-1.372,7.088H931.86V986.81h64.6Z" transform="translate(-595.952 -733.167)" fill="#fff"/><path d="M1090.059,1036.525a52.519,52.519,0,0,0,.34,6.764,8.614,8.614,0,0,0,1.327,3.849,4.61,4.61,0,0,0,2.824,1.8,25.149,25.149,0,0,0,4.836.506v3.257H1071.66v-3.257a22.629,22.629,0,0,0,4.835-.552,5.2,5.2,0,0,0,2.867-1.755,7.555,7.555,0,0,0,1.372-3.637,47.8,47.8,0,0,0,.339-6.375v-34.745a48.923,48.923,0,0,0-.3-5.943,8.763,8.763,0,0,0-1.2-3.721,4.8,4.8,0,0,0-2.607-1.93,18.676,18.676,0,0,0-4.453-.723V986.81h26.016v3.251a14.683,14.683,0,0,0-4.411.683,4.938,4.938,0,0,0-2.566,2.025,9.326,9.326,0,0,0-1.194,3.894,54.143,54.143,0,0,0-.3,6.334Z" transform="translate(-664.968 -733.168)" fill="#fff"/><path d="M1177.053,985.118a36.821,36.821,0,0,1,14.035,2.648,35.394,35.394,0,0,1,11.295,7.276,33.817,33.817,0,0,1,7.53,10.866,33.374,33.374,0,0,1,2.739,13.519,30.873,30.873,0,0,1-2.785,13.007A33.262,33.262,0,0,1,1202.3,1043a35.727,35.727,0,0,1-11.295,7.089,38.6,38.6,0,0,1-27.894,0,35.713,35.713,0,0,1-11.3-7.089,33.3,33.3,0,0,1-7.6-10.566,30.881,30.881,0,0,1-2.779-13.007,33.3,33.3,0,0,1,2.739-13.519,33.721,33.721,0,0,1,7.529-10.866,35.377,35.377,0,0,1,11.3-7.276A36.8,36.8,0,0,1,1177.053,985.118Zm0,62.89a24.946,24.946,0,0,0,10.125-1.97,21.617,21.617,0,0,0,7.7-5.646,25.341,25.341,0,0,0,4.921-8.941,37.922,37.922,0,0,0,1.712-11.767,41.694,41.694,0,0,0-1.712-12.365,27.836,27.836,0,0,0-4.881-9.412,21.4,21.4,0,0,0-7.7-5.99,25.776,25.776,0,0,0-20.365,0,21.413,21.413,0,0,0-7.7,5.99,27.733,27.733,0,0,0-4.875,9.412,41.56,41.56,0,0,0-1.711,12.365,37.809,37.809,0,0,0,1.711,11.767,25.612,25.612,0,0,0,4.876,8.941,21.106,21.106,0,0,0,7.7,5.646A25.24,25.24,0,0,0,1177.053,1048.008Z" transform="translate(-699.415 -732.333)" fill="#fff"/><path d="M1352.663,1053.547l-40.643-53.563h-.345v36.541a59.032,59.032,0,0,0,.3,6.764,8.916,8.916,0,0,0,1.2,3.849,4.193,4.193,0,0,0,2.568,1.8,20.858,20.858,0,0,0,4.405.506v3.257h-23.018v-3.257a22.735,22.735,0,0,0,4.835-.552,5.193,5.193,0,0,0,2.866-1.755,7.5,7.5,0,0,0,1.366-3.637,46.352,46.352,0,0,0,.345-6.375v-34.745a48.823,48.823,0,0,0-.3-5.943,8.772,8.772,0,0,0-1.2-3.721,4.793,4.793,0,0,0-2.608-1.93,18.673,18.673,0,0,0-4.45-.723V986.81h16.942l37.392,49.882h.344v-33.71a60.522,60.522,0,0,0-.3-6.719,9.11,9.11,0,0,0-1.2-3.894,4.211,4.211,0,0,0-2.567-1.8,21.058,21.058,0,0,0-4.4-.507v-3.25h23.017v3.25a22.645,22.645,0,0,0-4.836.558,5.182,5.182,0,0,0-2.866,1.751,7.546,7.546,0,0,0-1.366,3.681,46.7,46.7,0,0,0-.345,6.329v51.169Z" transform="translate(-776.276 -733.168)" fill="#fff"/><path d="M630.242,552.259c2.471-1.489.739-3.59-.248-3.59-.866-.122-1.489.745-1.489,1.732,0,1.731.866,1.483,1.114,1.98.623,1.013-.618,2.967-1.363,3.59-2.592,2.349-3.711-1.362-4.557-1.114-.865.122-1.731,5.2-5.194.617a14.383,14.383,0,0,1-1.119-1.853c-.122-.375.871-1.362.248-2.476-1.109-1.854-3.463-.375-2.719,1.61.374,1.363.865,1.013,1.979,1.115-1.6,4.7-2.1,3.336-4.085,3.215.126.617.374.743,1.011,1.012a2.408,2.408,0,0,0,2.973-.242,2.625,2.625,0,0,0,.74-1.241c.369.121.247.121.744.618,1.483,1.362,2.724,2.228,4.557,1.013.618-.506.618-.744,1.114-1.489,1.012.871,1.488,1.858,3.463,1.489,2.106-.37,1.858-1.98,2.724-2.229.506.249.375.507,1.362,1.236.845.694,2.081,1.706,3.686.694l1.24-1.363c.861.744,1.605,2.229,3.463,1.61a5.016,5.016,0,0,0,2.349-1.61c.248-.369.248-.506.618-.617.617,0,.506,1.858,2.85,2.349a5.8,5.8,0,0,0,2.1-.369,11.45,11.45,0,0,0,1.236-1.241c.617.744.375,1.013,1.24,1.489a2.719,2.719,0,0,0,3.712-.369l1.362-1.241.507.866a2.591,2.591,0,0,0,4.328-.122c.37-.623,1.012-.623.618-1.736-.866,0-1.114.744-.744,1.489a6.164,6.164,0,0,1-1.591.359c-1.234-.248-2.223-2.6-2.223-3.584.507,0,1.013.121,1.358-.248.865-.744.865-2.851-.369-3.22a1.521,1.521,0,0,0-1.981,1.236c-.369,1.119.624,1.61.375,2.233-.375.987-1.858,2.967-2.971,3.336-2.229.866-2.6-2.349-3.464-2.349s-2.481,4.334-5.322,0a3.621,3.621,0,0,1-.623-2.476c.248-.369,1.362-.248,1.24-2.106-.121-2.223-2.966-2.1-2.966.248,0,1.012.363,1.114.86,1.61.507.374.507.623.127,1.858-.127.866-1.235,1.732-1.853,2.228l-.375.37c-1.483.744-2.6-.37-3.093-1.362a2.729,2.729,0,0,0-.74-.862c-.248.365-.375.507-.744.983-1.114,1.858-2.6,1.858-4.086.374a3.823,3.823,0,0,1-1.357-3.463Z" transform="translate(-438.443 -516.862)" fill="#fff" fill-rule="evenodd"/><path d="M624.329,530.816c0,1.012,0,.865.506,1.483.126.248.248.248.507.507.248.37.248.506.744.37a2.6,2.6,0,0,1-.507-1.236c.744.122.37.248,1.114-.248.126,1.235-.122.739-.122,1.362.37,0,1.236-1.362,1.363-1.737.248-1.23-1.114-1.23-1.737-1.727l.866-.866c.375-.375.375-.249.623-.507l.507-.506a2.9,2.9,0,0,0,1.356-2.6c0-2.107-1.854-1.483-2.1-5.69a7,7,0,0,1,.36-3.23,6.42,6.42,0,0,1,4.086-3.711c1.731-.624,3.584,0,3.462-.866,0-.375-.505-.744-.87-.866a3.441,3.441,0,0,0-2.223,0,6.39,6.39,0,0,0-3.463,1.483,4.158,4.158,0,0,0-1.362,1.114,6.112,6.112,0,0,0-1.012,1.489,10.883,10.883,0,0,0,.247,9.4c.127.122.37.507.507.618.506.865.866.618-.369,1.483a2.9,2.9,0,0,1-.872.866,7.923,7.923,0,0,1-1.853,1.61c-.987-.37-2.227-2.354-2.724-3.342a12.984,12.984,0,0,1,2.228-13.616c.126-.121.126-.242.248-.369.507-.506,0,.127.507-.37.369-.248.507-.618,0-.865-.866-.243-2.846,2.349-3.093,2.845-.249.375-.375.506-.624.866,0,.126-.248.375-.248.506a2.018,2.018,0,0,0-.248.507c-1.357,3.215-2.223,6.076-1.479,9.777a8.141,8.141,0,0,0,5.691,6.076Z" transform="translate(-441.192 -497.895)" fill="#fff" fill-rule="evenodd"/><path d="M678.412,528.882c-.612-.248-1.235-1.114-1.853-1.489a5.866,5.866,0,0,0-.866-.866c-.375-.37-.623-.37-.871-1.013a6.862,6.862,0,0,0,1.367-2.228c1.362-3.711,1.013-8.536-1.985-10.764a8.515,8.515,0,0,0-2.35-1.24,19.2,19.2,0,0,0-2.845-.739c-.617,0-1.98.506-1.98,1.114s0,.122.126.37c.37.248,3.96-.127,5.939,1.858.243.37.613.617.861,1.012a6.345,6.345,0,0,1,1.114,4.558,3.359,3.359,0,0,1-.248,1.6l-.506,1.483a8.542,8.542,0,0,1-.871,1.119,2.631,2.631,0,0,0-.122,2.967c.249.618,1.858,1.859,2.477,2.476l.506.507c-.744.617-2.355.744-1.489,2.222.374.507.623,1.241,1.24,1.363a2.245,2.245,0,0,1-.248-1.363c.865.249.126.249,1.114.127,0,.988-.37.37-.37,1.362a2.862,2.862,0,0,0,1.114-1.012c.507-.506.618-.617.37-1.483a8.12,8.12,0,0,0,5.322-4.7A14.254,14.254,0,0,0,682.852,516l-1.013-1.732a12.283,12.283,0,0,0-2.851-3.712c-.865-.617-1.6,0-.739.739v.127l1.423,1.363a10.981,10.981,0,0,1,2.229,5.195,16.617,16.617,0,0,1-.375,6.583c-.37,1.357-1.981,3.959-3.094,4.328Z" transform="translate(-465.21 -497.925)" fill="#fff" fill-rule="evenodd"/><path d="M658.573,485.865h-.126a3.647,3.647,0,0,1-1.61.744,4.2,4.2,0,0,1-1.478.744l-2.973-1.362v-.126h-.248c.248.506.507.506.744,1.012l1.737,1.838c.507.506.37.612.37,1.478-.866,0-.866.127-2.1-.866a9.012,9.012,0,0,0-1.737-1.235c0,.744.744,1.98.744,2.6s-.744,1.985-.744,2.6l2.476-1.737a1.36,1.36,0,0,1,1.241-.243c0,2.6.248,1.731-1.114,2.6a4.25,4.25,0,0,0-1.858,3.711c.122,1.979,1.241,3.959,3.469,4.081,2.846,0,4.081-3.463,3.337-5.569l-.617-1.24c-1.013-1.483-1.981-1.235-2.107-1.732v-1.853c1.24-.126,1.858.866,2.851,1.362.369.248.507.37.866.618-.122-.506-.744-2.228-.744-2.6s.622-2.1.744-2.719l-2.6,1.975c-.506.375-.506.248-1.363.248a1.619,1.619,0,0,1,.375-1.357l1.732-1.858a8.457,8.457,0,0,0,.744-1.114Z" transform="translate(-457.371 -485.86)" fill="#fff" fill-rule="evenodd"/><path d="M653.619,536.652a1.289,1.289,0,0,0-.368,1.98c.86.865,2.344-.37,1.356-1.732-.374-.506-.506-.248-.987-.506a5.33,5.33,0,0,1-.126-.618c-.242-.506-.242-.248-.121-.506.248-.248,0,0,.506.122.613,0,.122-.248.74-.122-.126.506-.374.618-.374,1.235.374,0,.248,0,.506-.248a.914.914,0,0,0,.249-.507,4.282,4.282,0,0,0,.744-.744c.37-.739-.126-.369.618-.861a1.429,1.429,0,0,0,.866-.623c1.61-1.114,3.215-.866,2.228-4.557l-2.349-9.651c-.127-.618,0-.865-.37-1.114-1.61-1.012-.623,3.337-.507,4.208.122.988.618,4.2.866,5.2,1.114,3.463.618,3.094-.37,4.329l-1.489,1.61c-1.012-.37-1.012-.866-2.6,0a4.085,4.085,0,0,0-.744-.744c-1.98-2.349-2.349-1.484-1.235-4.947a61.047,61.047,0,0,0,1.361-7.8c0-.618.37-2.228-.618-1.854-.623.122-.743,1.236-.871,2.223l-.618,2.354a14.164,14.164,0,0,0-.617,2.47,37.063,37.063,0,0,0-1.109,4.952c-.248,1.732,0,1.732,1.357,2.846.507.248.617.248,1.115.506,1.483,1.236,1.012.623,1.483,1.483.126.37.374.507.623.866.506.617.248.37.865.744Z" transform="translate(-455.866 -501.751)" fill="#fff" fill-rule="evenodd"/><path d="M618.89,572.242c0,1.362.122,1.236,1.479,1.236,12.253-.122,25.123,0,37.5,0,.866,0,1.975.249,2.1-.507.506-1.235-.987-1.114-1.356-1.114-12.253.127-25.119,0-37.5,0-1.236,0-1.484-.121-2.224.375Z" transform="translate(-441.444 -528.308)" fill="#fff" fill-rule="evenodd"/><path d="M660.041,569.679c-.248-.369-1.6-.243-2.476-.243H619.823c-.739,0-2.1-.248-1.726.861.121.506,1.848.248,2.47.248H658.31C659.049,570.545,660.537,570.794,660.041,569.679Z" transform="translate(-441.022 -527.108)" fill="#fff" fill-rule="evenodd"/><path d="M702.769,520.828c-.507-.126-.507-.375-.866-.623a5.719,5.719,0,0,0-2.971-1.6c-.249.375-.618.745-.127,1.114a8.782,8.782,0,0,0,1.114.739,3.633,3.633,0,0,1,1.013.866l1.235,1.489c2.1,2.6,1.367,5.939-.617,8.537-.37.505-.507.505-.866,1.013-.507,1.114.37,1.979.866,2.6,2.845,3.839,1.114.37,1.241,5.317.617-.612.248-.506.744-.612l-.375,1.012c.988.122.988-.375,1.357-1.731a7.811,7.811,0,0,0,.248-2.973c-.37-.37-.122.507-1.109-1.013a.121.121,0,0,1-.122-.121l-.126-.127c-1.241-1.732-.122-2.1.37-3.22a14.857,14.857,0,0,0,.987-4.329v-2.1a9.294,9.294,0,0,1-.506-1.732c.743,1.484,2.354,1.013,1.984-.617a1.321,1.321,0,0,0-1.24-1.12c-.866.126-.743.871-.743,1.611-.507-.506-.249-.618-.734-1.115-.127-.369-.623-.865-.745-1.235Z" transform="translate(-480.777 -502.023)" fill="#fff" fill-rule="evenodd"/><path d="M607.3,523.552c0-.622.375-1.362-.248-1.737-1.013-1.013-2.228,1.489-1.236,2.233.618.507,1.236-.126,1.484-.375,0,.624-.37,1.115-.37,1.854,0,2.971-.122,2.233.744,5.063.74,2.6,1.974,1.858.507,4.334-.243.123-.37.507-.507.618-.248.369-.375.122-.744.369a10.653,10.653,0,0,0,.248,2.852c.248,1.235.37,1.853,1.236,1.853l-.249-1.012a2.06,2.06,0,0,1,.739.739A9.128,9.128,0,0,0,608.4,537l.37-.368,1.114-1.489c1.61-1.853,1.61-2.344.375-3.833-.248-.122-.375-.507-.623-.744l-.871-1.692c-1.236-3.346-.249-6.076,2.6-8.171l1.362-.988h.121v-.121h.121c0-1.362-.617-1.114-1.483-.618a12.569,12.569,0,0,0-2.476,1.727v.117a4.655,4.655,0,0,0-.618.865l-.618.866a3.682,3.682,0,0,1-.506,1.012Z" transform="translate(-434.81 -502.013)" fill="#fff" fill-rule="evenodd"/><path d="M622.4,587.373h37.372c.248-.375.369-.507.122-1.013-.739-.247-28.582-.121-34.025-.121-3.347,0-3.964-.375-3.468,1.115Z" transform="translate(-443.104 -535.394)" fill="#fff" fill-rule="evenodd"/><path d="M620.116,576.495h38.111c1.732,0,1.853.121,1.732-.866-.866-.248-38.734-.248-40.339,0,0,.618,0,.739.506.866Z" transform="translate(-441.805 -530.085)" fill="#fff" fill-rule="evenodd"/><path d="M621.81,584.923c1.367.248,32.055,0,36.754.121,1.013,0,1.61.248,1.488-.866-.87-.248-37.25-.248-38.242,0Z" transform="translate(-442.886 -534.306)" fill="#fff" fill-rule="evenodd"/><path d="M657.4,538.788c-.617.249-1.012.507-1.114.866-.865,2.1.745,3.833,2.1,3.216C660.859,541.857,659.5,537.917,657.4,538.788Z" transform="translate(-459.784 -511.928)" fill="#fff" fill-rule="evenodd"/><path d="M629.655,556.558c-.739.121-.369.506-1.109.506,0-.375.121-.375.121-.744,0-.247-.121-.374-.121-.744.74,0,.507.248,1.013.248s-.249-.248.121,0Zm0,0c.375.369.375.739,1.013.739a1.076,1.076,0,0,0,.745-1.113,1.012,1.012,0,0,0-.507-1.236c-.744-.127-.865.248-1.24.617-1.012-.506-1.975-3.342-2.719.369-.122,1.119.248,1.362.507,2.1.866,2.107,2.222-1.23,2.222-1.479Z" transform="translate(-445.41 -519.525)" fill="#fff" fill-rule="evenodd"/><path d="M686.649,537.1c-1.858.623-1.489,3.838.74,3.463C689.242,540.321,688.75,536.361,686.649,537.1Z" transform="translate(-474.308 -511.111)" fill="#fff" fill-rule="evenodd"/><path d="M661.65,554.507c.506-.122.506-.37,1.114-.507a4.952,4.952,0,0,0,0,1.489,1.827,1.827,0,0,1-1.114-.507c0,.866,0,.369.617,1.24l.623.735c.618.375.988,0,1.236-.613a10.139,10.139,0,0,1,.506-1.24,7.644,7.644,0,0,0-.744-2.6c-.988-.127-.866,0-1.362.617-.506.506-.865.369-.865,1.362Z" transform="translate(-462.554 -518.74)" fill="#fff" fill-rule="evenodd"/><path d="M628.767,537.1c-1.986.744-1.241,4.086.981,3.464a2.222,2.222,0,0,0,.872-2.223C630.372,537.47,629.748,536.726,628.767,537.1Z" transform="translate(-445.752 -511.105)" fill="#fff" fill-rule="evenodd"/><path d="M654.587,554.962c-.37.248-.507.507-1.114.507,0-.375.121-.375.121-.745s-.121-.248-.121-.743c.618.126.507.248,1.114.506,0-.744-1.362-1.979-1.61-2.106-.744,0-.744.506-.866,1.013-.745,1.484-.618,1.484,0,2.724.248.617.369,1.357,1.114.861l1.109-1.246c.248-.248.248-.248.248-.745Z" transform="translate(-457.592 -518.699)" fill="#fff" fill-rule="evenodd"/><path d="M612.77,559.9c.744.248.126-.248,1.119-.375.618,1.012-.375,1.012-.623,1.611,1.737.744,2.232-.866,2.232-1.732a1.9,1.9,0,0,0-.622-1.6c-.988-.866-2.107-1.114-2.107.506v1.605Z" transform="translate(-438.424 -521.036)" fill="#fff" fill-rule="evenodd"/><path d="M700.995,559.21a2.606,2.606,0,0,0,.618,1.858c.369.618,1.012.37,1.609.121-.369-.617-1.012-.369-.743-1.235.126-.866.623,0,1.114.121.247-.865.375-2.845-.74-2.845A2.382,2.382,0,0,0,700.995,559.21Z" transform="translate(-481.976 -521.094)" fill="#fff" fill-rule="evenodd"/><path d="M636,554.828a2.419,2.419,0,0,1,1.013-.37c-.248,1.013,0,.507.126,1.362-.744,0-.507-.126-1.013-.248,0,.866,1.484,1.853,1.61,1.727.74,0,1.013-2.35,1.013-2.593-.126-.375-.375-.871-.506-1.24-.369-.617-.122-.866-.988-.866A8.046,8.046,0,0,0,636,554.828Z" transform="translate(-449.891 -518.808)" fill="#fff" fill-rule="evenodd"/><path d="M678.988,557.427l.866-.744a1.64,1.64,0,0,0,.617-1.109,1.321,1.321,0,0,1-.977.273l.122-1.362c.375,0,.618.249,1.012.506,0-.866-.617-1.235-.865-1.853-.623-1.013-1.012-.374-1.362.37a3.108,3.108,0,0,0-.369,2.107c.248.865.126,1.6,1.012,1.853Z" transform="translate(-470.601 -518.815)" fill="#fff" fill-rule="evenodd"/><path d="M657.766,531.253c-.243.121-.369-.248-.739.739-.744,1.489.37,2.973,1.727,2.355C660.242,533.84,659.995,530.635,657.766,531.253Z" transform="translate(-460.154 -508.23)" fill="#fff" fill-rule="evenodd"/><path d="M686.951,555.982c.375-.122.506-.369.988-.369l-.122,1.61c-.618-.248-.507-.507-.987-.618,0,.506.248.739.506,1.229a1.277,1.277,0,0,1,.37.507c.37.507,0,.127.37.507.74.248,1.013-.866,1.235-1.363.507-.987,0-4.08-1.235-3.093-.37.374-1.114,1.119-1.114,1.61Z" transform="translate(-474.985 -519.598)" fill="#fff" fill-rule="evenodd"/><path d="M689.885,529.835c-1.013.243-1.236.983-1.115,1.974.122,1.981,3.094,1.859,2.725-.743C691.5,530.7,690.872,529.587,689.885,529.835Z" transform="translate(-475.928 -507.551)" fill="#fff" fill-rule="evenodd"/><path d="M626.2,529.839c-1.113.121-1.61,1.726-1.012,2.719a1.584,1.584,0,0,0,1.367.618c1.975-.618,1.231-3.711-.374-3.337Z" transform="translate(-444.429 -507.556)" fill="#fff" fill-rule="evenodd"/><path d="M691.5,523.959c0-2.6-2.6-2.106-2.724-.248,0,.744.618,1.61,1.236,1.61a1.281,1.281,0,0,0,1.489-1.362Z" transform="translate(-475.948 -503.782)" fill="#fff" fill-rule="evenodd"/><path d="M687.672,515.4a1.514,1.514,0,0,0-1.114,1.858c.248,1.98,3.094,1.357,2.724-.745C689.156,516.146,688.538,515.154,687.672,515.4Z" transform="translate(-474.84 -500.425)" fill="#fff" fill-rule="evenodd"/><path d="M628.355,515.411c-1.736.506-1.241,3.462.613,3.093a1.7,1.7,0,0,0,1.012-1.979,1.336,1.336,0,0,0-1.6-1.114Z" transform="translate(-445.589 -500.433)" fill="#fff" fill-rule="evenodd"/><path d="M625,523.629c0,2.481,2.6,2.233,2.6.248C627.6,521.527,625,521.9,625,523.629Z" transform="translate(-444.461 -503.811)" fill="#fff" fill-rule="evenodd"/><path d="M683.91,509.816a1.534,1.534,0,0,0-1.241,1.727c.122.744.618,1.488,1.483,1.362C685.642,512.657,685.521,509.568,683.91,509.816Z" transform="translate(-472.931 -497.68)" fill="#fff" fill-rule="evenodd"/><path d="M657.9,524.144a1.354,1.354,0,0,0-.739,1.858,1.192,1.192,0,0,0,1.6,1.012c1.61-.623.744-3.595-.866-2.851Z" transform="translate(-460.286 -504.711)" fill="#fff" fill-rule="evenodd"/><path d="M708.479,547.076a1.4,1.4,0,0,0,1.731-1.114,1.471,1.471,0,0,0-.506-1.984c-1.013-.37-2.724,1.239-1.241,3.1Z" transform="translate(-485.379 -514.526)" fill="#fff" fill-rule="evenodd"/><path d="M607.222,544c-.745,0-1.489,1.367-.375,2.728,1.114,1.231,2.349-.247,1.853-1.362C608.457,544.744,608.088,544,607.222,544Z" transform="translate(-435.219 -514.563)" fill="#fff" fill-rule="evenodd"/><path d="M632.531,510.011c-.375.122-.744.122-.871.617-.507.987.126,2.846,1.488,2.228C634.638,512.233,634.015,509.515,632.531,510.011Z" transform="translate(-447.664 -497.753)" fill="#fff" fill-rule="evenodd"/><path d="M692.862,579.811c.369-.618-.249-1.605-.745-1.854a1.387,1.387,0,0,0-1.731,1.012,1.313,1.313,0,1,0,2.476.866Z" transform="translate(-476.688 -531.3)" fill="#fff" fill-rule="evenodd"/><path d="M656.969,579.684c.375,1.858,2.845,1.119,2.6-.618a5.064,5.064,0,0,0-.507-.861,1.1,1.1,0,0,0-1.078-.253,1.489,1.489,0,0,0-1.012,1.727Z" transform="translate(-460.227 -531.3)" fill="#fff" fill-rule="evenodd"/><path d="M651.355,579.727a1.335,1.335,0,1,0,2.6-.617C653.7,577.256,650.981,577.874,651.355,579.727Z" transform="translate(-457.455 -531.343)" fill="#fff" fill-rule="evenodd"/><path d="M679.214,579.812a1.272,1.272,0,0,0,2.349.249,1.362,1.362,0,0,0-1.463-2.106,1.574,1.574,0,0,0-.866,1.853Z" transform="translate(-471.207 -531.301)" fill="#fff" fill-rule="evenodd"/><path d="M629.135,579.589a1.312,1.312,0,0,0,2.6-.37A1.312,1.312,0,1,0,629.135,579.589Z" transform="translate(-446.494 -531.327)" fill="#fff" fill-rule="evenodd"/><path d="M667.984,579.581a1.312,1.312,0,1,0,2.6-.37C670.455,577.232,667.736,577.728,667.984,579.581Z" transform="translate(-465.674 -531.318)" fill="#fff" fill-rule="evenodd"/><path d="M673.63,579.716a1.473,1.473,0,0,0,1.363,1.367,1.306,1.306,0,1,0-1.363-1.367Z" transform="translate(-468.468 -531.581)" fill="#fff" fill-rule="evenodd"/><path d="M665.08,579.946a1.525,1.525,0,0,0-.618-1.853,1.174,1.174,0,0,0-1.737.744A1.3,1.3,0,1,0,665.08,579.946Z" transform="translate(-463.012 -531.314)" fill="#fff" fill-rule="evenodd"/><path d="M641.6,578c-1.6,0-1.727,2.719-.122,2.846a1.3,1.3,0,0,0,1.362-1.367A1.19,1.19,0,0,0,641.6,578Z" transform="translate(-452.029 -531.345)" fill="#fff" fill-rule="evenodd"/><path d="M687.275,579.825c.622-1.732-1.975-2.72-2.472-.988A1.331,1.331,0,1,0,687.275,579.825Z" transform="translate(-473.951 -531.314)" fill="#fff" fill-rule="evenodd"/><path d="M623.5,579.726a1.619,1.619,0,0,0,.618.745.759.759,0,0,0,.866.247,1.331,1.331,0,0,0,1.113-1.61C625.85,577.256,623.121,577.874,623.5,579.726Z" transform="translate(-443.701 -531.342)" fill="#fff" fill-rule="evenodd"/><path d="M637.242,579.992c.506-.618-.248-1.6-.618-1.853a1.276,1.276,0,0,0-1.732.744C634.27,580.241,636.007,581.851,637.242,579.992Z" transform="translate(-449.28 -531.36)" fill="#fff" fill-rule="evenodd"/><path d="M648.468,579.632c.507-1.6-2.227-2.349-2.476-.506C645.744,581.105,648.094,581.481,648.468,579.632Z" transform="translate(-454.815 -531.37)" fill="#fff" fill-rule="evenodd"/><path d="M678.721,506.6c-1.727.507-1.109,3.215.507,2.841a1.4,1.4,0,0,0,.866-1.727c0-.623-.74-1.362-1.362-1.114Z" transform="translate(-470.471 -496.075)" fill="#fff" fill-rule="evenodd"/><path d="M639.075,508.153c0-2.354-2.35-2.106-2.35-.374C636.6,510,639.075,509.632,639.075,508.153Z" transform="translate(-450.247 -496.017)" fill="#fff" fill-rule="evenodd"/><path d="M642.894,505.331a1.354,1.354,0,0,0,.745,2.6C644.879,507.427,644.382,504.713,642.894,505.331Z" transform="translate(-452.831 -495.427)" fill="#fff" fill-rule="evenodd"/><path d="M711.19,537.651c-1.241,1.609-.249,3.463.865,2.972a2.132,2.132,0,0,0,.623-1.853C712.551,537.757,712.3,537.529,711.19,537.651Z" transform="translate(-486.727 -511.413)" fill="#fff" fill-rule="evenodd"/><path d="M605.917,537.642c-1.115-.122-1.362,0-1.484,1.012a2.025,2.025,0,0,0,.74,1.98c.87.507,1.985-1.24.744-2.972Z" transform="translate(-434.29 -511.405)" fill="#fff" fill-rule="evenodd"/><path d="M648.392,504.915c-1.488.375-1.488,2.972.365,2.724.745-.122,1.013-.866.872-1.61C649.5,505.411,649.005,504.793,648.392,504.915Z" transform="translate(-455.478 -495.259)" fill="#fff" fill-rule="evenodd"/><path d="M673.294,505.3a1.36,1.36,0,0,0,.739,2.6C675.4,507.537,674.778,504.559,673.294,505.3Z" transform="translate(-467.885 -495.4)" fill="#fff" fill-rule="evenodd"/><path d="M668.1,505.125c-1.361.369-1.24,2.845.506,2.6.744,0,1.013-.739.866-1.609-.122-.618-.618-1.236-1.357-.988Z" transform="translate(-465.282 -495.343)" fill="#fff" fill-rule="evenodd"/><path d="M659.636,485.87H653.56V486l2.972,1.362a4.184,4.184,0,0,0,1.478-.744c.623-.248,1.119-.248,1.61-.744Z" transform="translate(-458.56 -485.865)" fill="#fff" fill-rule="evenodd"/><path d="M658.062,518.218c-.243.247-.866.369-.618,1.6a1.195,1.195,0,0,0,1.605.745,1.51,1.51,0,0,0,0-2.349C658.31,517.843,658.062,518.218,658.062,518.218Z" transform="translate(-460.45 -501.752)" fill="#fff" fill-rule="evenodd"/><path d="M696.458,513.588c-1.484.744-.122,2.6,1.114,2.106a1.182,1.182,0,0,0-.126-2.106A.912.912,0,0,0,696.458,513.588Z" transform="translate(-479.418 -499.477)" fill="#fff" fill-rule="evenodd"/><path d="M702.36,515.4c-1.24.127-1.012,1.489-.127,2.107a1.013,1.013,0,0,0,1.489-1.363c-.127-.121-.37-.506-.507-.617a1.012,1.012,0,0,0-.866-.127Z" transform="translate(-482.227 -500.419)" fill="#fff" fill-rule="evenodd"/><path d="M610.693,519.978c0-.739-.122-.739-.507-1.108-.734,0-.982.122-1.23.617-1.489,2.1,1.727,2.72,1.727.507Z" transform="translate(-436.346 -502.156)" fill="#fff" fill-rule="evenodd"/><path d="M706.621,521c.37.243.506.506,1.108.506,1.49-.248.371-3.089-.861-2.471-.87.375-.375,1.236-.248,1.98Z" transform="translate(-484.63 -502.194)" fill="#fff" fill-rule="evenodd"/><path d="M619.469,513.615c-1.605.617-.866,2.724.617,1.98C621.575,514.977,620.831,513,619.469,513.615Z" transform="translate(-441.284 -499.504)" fill="#fff" fill-rule="evenodd"/><path d="M604.22,532.365v.618c.249.506.249.865,1.114.865a1.271,1.271,0,0,0,.744-1.013,2.62,2.62,0,0,0-.249-1.483,1.143,1.143,0,0,0-1.24,0Z" transform="translate(-434.202 -508.228)" fill="#fff" fill-rule="evenodd"/><path d="M614.312,515.378c-1.483.248-1.61,2.354-.121,2.233a.754.754,0,0,0,.744-.375c.248-.248.369-.248.369-.745.127-.866-.248-1.362-1.012-1.114Z" transform="translate(-438.604 -500.401)" fill="#fff" fill-rule="evenodd"/><path d="M713.109,533v-.744l-.37-.866a1.143,1.143,0,0,0-1.24,0c-.369.866-.506,2.354.745,2.476C712.861,533.746,712.749,533.5,713.109,533Z" transform="translate(-487.036 -508.248)" fill="#fff" fill-rule="evenodd"/><path d="M620.11,579.231a1.738,1.738,0,0,0,.74,1.483c1.24.369,1.012-2.471.121-2.719C620.232,577.869,620.11,578.614,620.11,579.231Z" transform="translate(-442.047 -531.338)" fill="#fff" fill-rule="evenodd"/><path d="M697.2,579.921c.506-1.6-.507-2.968-1.241-1.23C695.338,580.3,696.7,581.658,697.2,579.921Z" transform="translate(-479.412 -531.289)" fill="#fff" fill-rule="evenodd"/><path d="M684.006,555.933c-1.119.375-.622,2.475.37,2.228C685.617,557.791,685.121,555.437,684.006,555.933Z" transform="translate(-473.276 -520.42)" fill="#fff" fill-rule="evenodd"/><path d="M631.214,558.032v-.744c-.369-.249.375,0-.121,0s-.248-.249-1.013-.249c0,.369.122.506.122.744,0,.369-.122.369-.122.744.74,0,.37-.375,1.109-.506Z" transform="translate(-446.968 -521)" fill="#fff" fill-rule="evenodd"/><path d="M612.049,562.487l-.739-.127v.866c.507.506.122.506.865.506.249-.618,0-.739-.126-1.235Z" transform="translate(-437.703 -523.626)" fill="#fff" fill-rule="evenodd"/></g></svg>