<svg xmlns="http://www.w3.org/2000/svg" width="150" height="30" viewBox="0 0 150 30"><g transform="translate(294 88)" opacity="0.65"><path d="M541.7,408.575v-4.569h22.662v4.569h-8.94v25.431h-4.738V408.575Z" transform="translate(-835.695 -492.006)" fill="#fff"/><path d="M605.357,433.377h-4.738l-2.19-8.182h-12.56l-2.19,8.182H578.94l6.034-22.319c.8-2.955,1.654-4.955,2.592-6.046.895-1.046,2.414-1.591,4.6-1.591s3.711.545,4.6,1.591a17.315,17.315,0,0,1,2.548,6.046Zm-18.371-12.5h10.326l-2.637-9.91c-.715-2.682-1.073-3.273-2.5-3.273s-1.833.591-2.548,3.273Z" transform="translate(-847.227 -491.421)" fill="#fff"/><path d="M629.964,432.864V409.257c0-4.292,1.565-5.9,5.274-5.9,3.174,0,4.426,1.163,5.454,4.74l5.632,19.985c.313,1.028.58,1.252,1.162,1.252s.894-.492.894-1.475V403.8h4.559V427.41c0,4.337-1.52,5.9-5.1,5.9-3.263,0-4.6-1.252-5.676-4.963l-5.543-19.538c-.313-1.207-.536-1.475-1.207-1.475-.582,0-.895.536-.895,1.565v23.964Z" transform="translate(-863.031 -491.355)" fill="#fff"/><path d="M679.364,409.26c0-3.687,1.52-5.254,5.1-5.254h3.711c4.693,0,8.09.829,10.1,2.535s3.039,4.793,3.039,9.263v6.36c0,8.434-3.978,11.8-13.141,11.8h-3.711c-3.576,0-5.1-1.567-5.1-5.254Zm8.806,20.14c3.217,0,5.408-.507,6.57-1.567s1.743-2.949,1.743-5.669V415.8q0-4.078-1.743-5.668c-1.162-1.06-3.353-1.567-6.57-1.567H685.8a1.55,1.55,0,0,0-1.743,1.751v17.329A1.55,1.55,0,0,0,685.8,429.4Z" transform="translate(-878.333 -492.006)" fill="#fff"/><path d="M727.26,430.381c-1.743-2.012-2.592-4.918-2.592-8.763v-6.393c0-3.846.893-6.8,2.637-8.808s4.783-3,9.208-3,7.509.984,9.252,3,2.593,4.963,2.593,8.808v6.393c0,3.845-.85,6.751-2.593,8.763s-4.827,3.04-9.252,3.04S729,432.393,727.26,430.381Zm16.36-15.156c0-2.638-.492-4.516-1.43-5.679-.939-1.118-2.861-1.7-5.676-1.7s-4.738.581-5.677,1.7c-.938,1.162-1.43,3.04-1.43,5.679v6.393c0,2.593.492,4.471,1.43,5.633s2.861,1.744,5.677,1.744,4.738-.581,5.676-1.744,1.43-3.04,1.43-5.633Z" transform="translate(-892.358 -491.421)" fill="#fff"/></g></svg>