<?xml version="1.0" encoding="utf-8"?>
<!-- Generator: Adobe Illustrator 17.0.0, SVG Export Plug-In . SVG Version: 6.00 Build 0)  -->
<!DOCTYPE svg PUBLIC "-//W3C//DTD SVG 1.1//EN" "http://www.w3.org/Graphics/SVG/1.1/DTD/svg11.dtd">
<svg version="1.1" id="Layer_1" xmlns="http://www.w3.org/2000/svg" xmlns:xlink="http://www.w3.org/1999/xlink" x="0px" y="0px"
	 width="591.262px" height="320.387px" viewBox="0 0 591.262 320.387" enable-background="new 0 0 591.262 320.387"
	 xml:space="preserve">
<g>
	<path fill="#FFFFFF" d="M124.934,197.193c-8.535,0-16.669-1.334-24.4-4c-7.734-2.666-14.469-6.4-20.2-11.2
		c-5.734-4.8-9.935-10.331-12.6-16.6c-1.334-2.8-1.3-5.4,0.1-7.8s3.766-3.931,7.1-4.6c2.4-0.531,4.766-0.166,7.1,1.1
		c2.331,1.269,4.1,3.169,5.3,5.7c1.6,3.334,4.231,6.4,7.9,9.2c3.666,2.8,8.1,5.069,13.3,6.8c5.2,1.734,10.666,2.601,16.4,2.601
		c6.4,0,12.3-1,17.7-3c5.4-2,9.766-4.9,13.1-8.7c3.332-3.8,5-8.5,5-14.1c0-7.065-2.769-13.4-8.3-19
		c-5.535-5.6-14.634-9.065-27.3-10.4c-16.534-1.6-29.534-6.466-39-14.6c-9.469-8.131-14.2-18.2-14.2-30.2
		c0-8.8,2.465-16.266,7.4-22.4c4.931-6.131,11.631-10.8,20.1-14c8.465-3.2,17.9-4.8,28.3-4.8c8.131,0,15.231,1.134,21.3,3.4
		c6.065,2.269,11.365,5.4,15.9,9.4c4.531,4,8.465,8.734,11.8,14.2c1.866,2.935,2.631,5.7,2.3,8.3c-0.334,2.6-1.635,4.635-3.9,6.1
		c-2.534,1.6-5.269,1.935-8.2,1c-2.935-0.931-5.134-2.666-6.6-5.2c-2.134-3.866-4.734-7.131-7.8-9.8
		c-3.069-2.666-6.669-4.766-10.8-6.3c-4.134-1.531-9-2.3-14.6-2.3c-9.869-0.131-18.134,1.7-24.8,5.5c-6.669,3.8-10,9.635-10,17.5
		c0,4,1.031,7.834,3.1,11.5c2.065,3.669,5.866,6.834,11.4,9.5c5.531,2.669,13.5,4.535,23.9,5.6c15.866,1.6,28.231,6.435,37.1,14.5
		c8.866,8.069,13.3,18.7,13.3,31.9c0,7.6-1.568,14.2-4.7,19.8c-3.134,5.601-7.334,10.301-12.6,14.101
		c-5.269,3.8-11.269,6.634-18,8.5C139.1,196.259,132.134,197.193,124.934,197.193z"/>
	<path fill="#FFFFFF" d="M223.332,195.193c-2.934,0-5.4-1-7.4-3s-3-4.466-3-7.4V49.394c0-3.066,1-5.566,3-7.5
		c2-1.932,4.466-2.9,7.4-2.9c4,0,7.066,1.869,9.2,5.6l62.6,125.4h-6.4l61-125.4c2.132-3.731,5.2-5.6,9.2-5.6
		c2.932,0,5.4,0.969,7.4,2.9c2,1.934,3,4.434,3,7.5v135.399c0,2.935-1.035,5.4-3.101,7.4c-2.068,2-4.5,3-7.3,3c-2.935,0-5.4-1-7.4-3
		s-3-4.466-3-7.4v-106.6l4-1l-52.399,106.8c-2.269,3.469-5.269,5.2-9,5.2c-4.4,0-7.6-2.065-9.6-6.2l-51.8-103.8l4-1v106.6
		c0,2.935-1,5.4-3,7.4S226.263,195.193,223.332,195.193z"/>
	<path fill="#FFFFFF" d="M458.931,197.193c-8.534,0-16.669-1.334-24.399-4c-7.734-2.666-14.469-6.4-20.201-11.2
		c-5.734-4.8-9.934-10.331-12.6-16.6c-1.334-2.8-1.3-5.4,0.1-7.8c1.4-2.4,3.766-3.931,7.101-4.6c2.399-0.531,4.766-0.166,7.101,1.1
		c2.33,1.269,4.1,3.169,5.299,5.7c1.601,3.334,4.232,6.4,7.9,9.2c3.666,2.8,8.1,5.069,13.301,6.8
		c5.199,1.734,10.665,2.601,16.399,2.601c6.399,0,12.3-1,17.7-3s9.766-4.9,13.1-8.7c3.332-3.8,5-8.5,5-14.1
		c0-7.065-2.769-13.4-8.3-19c-5.534-5.6-14.634-9.065-27.3-10.4c-16.535-1.6-29.535-6.466-39-14.6c-9.469-8.131-14.2-18.2-14.2-30.2
		c0-8.8,2.466-16.266,7.399-22.4c4.932-6.131,11.632-10.8,20.101-14c8.466-3.2,17.899-4.8,28.3-4.8c8.131,0,15.231,1.134,21.301,3.4
		c6.064,2.269,11.365,5.4,15.899,9.4c4.531,4,8.466,8.734,11.8,14.2c1.865,2.935,2.631,5.7,2.301,8.3
		c-0.335,2.6-1.635,4.635-3.9,6.1c-2.535,1.6-5.27,1.935-8.2,1c-2.935-0.931-5.134-2.666-6.601-5.2
		c-2.134-3.866-4.734-7.131-7.799-9.8c-3.069-2.666-6.67-4.766-10.801-6.3c-4.135-1.531-9-2.3-14.6-2.3
		c-9.869-0.131-18.135,1.7-24.801,5.5c-6.668,3.8-10,9.635-10,17.5c0,4,1.031,7.834,3.101,11.5c2.065,3.669,5.866,6.834,11.399,9.5
		c5.531,2.669,13.5,4.535,23.9,5.6c15.865,1.6,28.231,6.435,37.1,14.5c8.866,8.069,13.301,18.7,13.301,31.9
		c0,7.6-1.568,14.2-4.7,19.8c-3.134,5.601-7.335,10.301-12.601,14.101c-5.268,3.8-11.268,6.634-18,8.5
		C473.096,196.259,466.131,197.193,458.931,197.193z"/>
</g>
<g>
	<path fill="#FFFFFF" d="M18.852,285.083c-1.664,0-3.25-0.26-4.758-0.779c-1.508-0.521-2.821-1.248-3.939-2.185
		c-1.118-0.936-1.937-2.015-2.457-3.236c-0.26-0.547-0.253-1.054,0.02-1.521s0.734-0.767,1.384-0.896
		c0.468-0.104,0.93-0.033,1.385,0.214c0.455,0.247,0.799,0.618,1.034,1.111c0.312,0.65,0.825,1.248,1.54,1.794
		c0.715,0.546,1.58,0.989,2.594,1.326c1.014,0.339,2.08,0.507,3.198,0.507c1.248,0,2.399-0.194,3.452-0.585
		c1.053-0.39,1.904-0.955,2.555-1.696c0.649-0.741,0.975-1.657,0.975-2.749c0-1.378-0.54-2.613-1.619-3.705
		c-1.079-1.092-2.854-1.769-5.324-2.028c-3.224-0.312-5.759-1.261-7.605-2.847c-1.846-1.586-2.769-3.549-2.769-5.89
		c0-1.716,0.481-3.172,1.443-4.367c0.961-1.196,2.268-2.106,3.919-2.73c1.651-0.624,3.49-0.936,5.519-0.936
		c1.585,0,2.97,0.221,4.153,0.662c1.183,0.442,2.216,1.054,3.101,1.833c0.883,0.78,1.651,1.704,2.301,2.77
		c0.364,0.572,0.513,1.111,0.449,1.618c-0.065,0.507-0.319,0.904-0.761,1.189c-0.494,0.313-1.027,0.378-1.599,0.195
		c-0.572-0.182-1.001-0.52-1.287-1.014c-0.417-0.754-0.923-1.391-1.521-1.911c-0.599-0.52-1.3-0.93-2.106-1.229
		c-0.806-0.299-1.755-0.448-2.847-0.448c-1.924-0.026-3.536,0.331-4.836,1.072c-1.3,0.741-1.95,1.879-1.95,3.412
		c0,0.78,0.201,1.528,0.604,2.243c0.403,0.715,1.144,1.332,2.223,1.852c1.079,0.521,2.632,0.885,4.661,1.093
		c3.094,0.312,5.505,1.254,7.234,2.827c1.729,1.573,2.593,3.646,2.593,6.221c0,1.481-0.306,2.769-0.917,3.86
		c-0.611,1.093-1.43,2.009-2.457,2.75c-1.028,0.741-2.198,1.294-3.51,1.657C21.615,284.901,20.257,285.083,18.852,285.083z"/>
	<path fill="#FFFFFF" d="M45.294,284.85c-2.081,0-3.933-0.475-5.558-1.424c-1.625-0.948-2.899-2.235-3.822-3.861
		c-0.923-1.624-1.385-3.464-1.385-5.519c0-2.105,0.455-3.978,1.365-5.615c0.91-1.639,2.158-2.919,3.744-3.842
		s3.406-1.385,5.46-1.385c1.534,0,2.938,0.293,4.212,0.878c1.273,0.585,2.418,1.462,3.432,2.633c0.364,0.416,0.494,0.845,0.39,1.286
		c-0.104,0.442-0.39,0.833-0.858,1.17c-0.364,0.261-0.767,0.346-1.209,0.254c-0.442-0.091-0.845-0.318-1.209-0.683
		c-1.274-1.352-2.86-2.027-4.758-2.027c-1.326,0-2.496,0.306-3.51,0.916c-1.014,0.611-1.808,1.463-2.379,2.555
		c-0.572,1.092-0.858,2.379-0.858,3.86c0,1.404,0.292,2.652,0.877,3.744c0.585,1.093,1.397,1.957,2.438,2.594
		c1.04,0.638,2.249,0.956,3.627,0.956c0.91,0,1.709-0.11,2.398-0.332c0.688-0.221,1.319-0.565,1.892-1.033
		c0.416-0.338,0.844-0.526,1.287-0.565c0.442-0.039,0.832,0.084,1.17,0.37c0.441,0.364,0.688,0.774,0.741,1.229
		c0.052,0.455-0.104,0.865-0.468,1.229C50.442,283.979,48.102,284.85,45.294,284.85z"/>
	<path fill="#FFFFFF" d="M61.05,276.933c-0.572,0-1.047-0.188-1.423-0.565c-0.377-0.377-0.566-0.852-0.566-1.424v-18.72
		c0-0.598,0.188-1.079,0.566-1.443c0.376-0.363,0.851-0.546,1.423-0.546c0.598,0,1.079,0.183,1.443,0.546
		c0.364,0.364,0.546,0.846,0.546,1.443v18.72c0,0.572-0.182,1.047-0.546,1.424C62.129,276.744,61.648,276.933,61.05,276.933z
		 M61.05,284.733c-0.572,0-1.047-0.188-1.423-0.565c-0.377-0.377-0.566-0.852-0.566-1.424V265.35c0-0.598,0.188-1.079,0.566-1.443
		c0.376-0.363,0.851-0.546,1.423-0.546c0.598,0,1.079,0.183,1.443,0.546c0.364,0.364,0.546,0.846,0.546,1.443v17.394
		c0,0.572-0.182,1.047-0.546,1.424C62.129,284.544,61.648,284.733,61.05,284.733z M77.079,284.733c-0.572,0-1.047-0.188-1.423-0.565
		c-0.377-0.377-0.565-0.852-0.565-1.424v-9.594c0-1.482-0.273-2.691-0.819-3.627c-0.546-0.937-1.281-1.632-2.204-2.087
		c-0.923-0.454-1.983-0.683-3.179-0.683c-1.092,0-2.08,0.222-2.964,0.663c-0.884,0.442-1.586,1.034-2.106,1.774
		c-0.521,0.741-0.78,1.594-0.78,2.555h-2.457c0-1.638,0.396-3.101,1.19-4.388c0.792-1.286,1.878-2.307,3.256-3.062
		c1.378-0.753,2.925-1.131,4.641-1.131c1.794,0,3.399,0.384,4.816,1.15c1.417,0.768,2.535,1.892,3.354,3.374
		c0.819,1.481,1.229,3.302,1.229,5.46v9.594c0,0.572-0.189,1.047-0.565,1.424C78.125,284.544,77.651,284.733,77.079,284.733z"/>
	<path fill="#FFFFFF" d="M95.37,284.85c-2.106,0-3.965-0.462-5.577-1.385c-1.612-0.923-2.88-2.197-3.802-3.822
		c-0.923-1.624-1.385-3.49-1.385-5.597c0-2.131,0.461-4.01,1.385-5.635c0.922-1.625,2.19-2.899,3.802-3.822
		c1.612-0.923,3.471-1.385,5.577-1.385c2.08,0,3.925,0.462,5.538,1.385c1.612,0.923,2.879,2.197,3.802,3.822
		c0.923,1.625,1.385,3.504,1.385,5.635c0,2.106-0.456,3.973-1.365,5.597c-0.91,1.625-2.171,2.899-3.783,3.822
		C99.334,284.388,97.476,284.85,95.37,284.85z M95.37,281.34c1.352,0,2.548-0.313,3.588-0.937c1.04-0.624,1.853-1.482,2.438-2.574
		s0.877-2.353,0.877-3.783c0-1.429-0.292-2.696-0.877-3.802s-1.398-1.97-2.438-2.594c-1.04-0.624-2.236-0.936-3.588-0.936
		c-1.353,0-2.548,0.312-3.588,0.936c-1.041,0.624-1.859,1.488-2.457,2.594c-0.599,1.105-0.897,2.373-0.897,3.802
		c0,1.431,0.298,2.691,0.897,3.783c0.598,1.092,1.417,1.95,2.457,2.574C92.821,281.027,94.017,281.34,95.37,281.34z"/>
	<path fill="#FFFFFF" d="M121.694,284.85c-2.106,0-3.965-0.462-5.577-1.385c-1.612-0.923-2.88-2.197-3.802-3.822
		c-0.923-1.624-1.385-3.49-1.385-5.597c0-2.131,0.461-4.01,1.385-5.635c0.922-1.625,2.19-2.899,3.802-3.822
		c1.612-0.923,3.471-1.385,5.577-1.385c2.08,0,3.925,0.462,5.538,1.385c1.612,0.923,2.879,2.197,3.802,3.822
		c0.923,1.625,1.385,3.504,1.385,5.635c0,2.106-0.456,3.973-1.365,5.597c-0.91,1.625-2.171,2.899-3.783,3.822
		C125.659,284.388,123.8,284.85,121.694,284.85z M121.694,281.34c1.352,0,2.548-0.313,3.588-0.937
		c1.04-0.624,1.853-1.482,2.438-2.574s0.877-2.353,0.877-3.783c0-1.429-0.292-2.696-0.877-3.802s-1.398-1.97-2.438-2.594
		c-1.04-0.624-2.236-0.936-3.588-0.936c-1.353,0-2.548,0.312-3.588,0.936c-1.041,0.624-1.859,1.488-2.457,2.594
		c-0.599,1.105-0.897,2.373-0.897,3.802c0,1.431,0.298,2.691,0.897,3.783c0.598,1.092,1.417,1.95,2.457,2.574
		C119.146,281.027,120.342,281.34,121.694,281.34z"/>
	<path fill="#FFFFFF" d="M143.417,284.693c-1.145,0-2.159-0.312-3.042-0.936c-0.884-0.624-1.574-1.476-2.067-2.555
		c-0.495-1.079-0.741-2.32-0.741-3.725v-21.294c0-0.572,0.182-1.04,0.546-1.404c0.364-0.363,0.832-0.546,1.404-0.546
		c0.571,0,1.04,0.183,1.404,0.546c0.364,0.364,0.546,0.832,0.546,1.404v21.294c0,0.962,0.182,1.755,0.546,2.379
		s0.832,0.936,1.404,0.936h0.975c0.52,0,0.942,0.183,1.267,0.547s0.488,0.832,0.488,1.403c0,0.572-0.248,1.04-0.741,1.404
		c-0.494,0.364-1.131,0.546-1.911,0.546H143.417z"/>
	<path fill="#FFFFFF" d="M163.892,284.693c-0.572,0-1.053-0.195-1.443-0.585c-0.39-0.39-0.585-0.871-0.585-1.443v-26.402
		c0-0.598,0.195-1.086,0.585-1.463c0.39-0.377,0.871-0.565,1.443-0.565c0.78,0,1.377,0.364,1.794,1.092l12.207,24.453h-1.248
		l11.895-24.453c0.416-0.728,1.014-1.092,1.794-1.092c0.571,0,1.053,0.188,1.443,0.565s0.585,0.865,0.585,1.463v26.402
		c0,0.572-0.202,1.054-0.604,1.443c-0.403,0.39-0.877,0.585-1.423,0.585c-0.572,0-1.053-0.195-1.443-0.585
		c-0.39-0.39-0.585-0.871-0.585-1.443v-20.787l0.78-0.194l-10.218,20.826c-0.442,0.676-1.027,1.014-1.755,1.014
		c-0.858,0-1.482-0.403-1.872-1.209l-10.101-20.241l0.78-0.195v20.787c0,0.572-0.195,1.054-0.585,1.443
		S164.463,284.693,163.892,284.693z"/>
	<path fill="#FFFFFF" d="M208.663,284.85c-1.898,0-3.601-0.475-5.109-1.424c-1.508-0.948-2.698-2.235-3.568-3.861
		c-0.872-1.624-1.307-3.464-1.307-5.519c0-2.053,0.474-3.899,1.423-5.537c0.949-1.639,2.236-2.932,3.861-3.881
		c1.625-0.949,3.451-1.424,5.479-1.424c2.028,0,3.848,0.475,5.46,1.424c1.612,0.949,2.892,2.242,3.841,3.881
		c0.949,1.638,1.424,3.484,1.424,5.537h-1.521c0,2.055-0.436,3.895-1.307,5.519c-0.872,1.626-2.061,2.913-3.568,3.861
		C212.264,284.375,210.561,284.85,208.663,284.85z M209.444,281.34c1.326,0,2.509-0.318,3.549-0.956
		c1.04-0.637,1.858-1.508,2.457-2.613c0.598-1.104,0.897-2.346,0.897-3.725c0-1.403-0.299-2.657-0.897-3.763
		c-0.599-1.105-1.417-1.976-2.457-2.613c-1.04-0.637-2.223-0.955-3.549-0.955c-1.3,0-2.477,0.318-3.53,0.955
		c-1.053,0.638-1.885,1.508-2.496,2.613c-0.611,1.105-0.917,2.359-0.917,3.763c0,1.379,0.305,2.62,0.917,3.725
		c0.61,1.105,1.443,1.977,2.496,2.613C206.967,281.022,208.143,281.34,209.444,281.34z M218.179,284.733
		c-0.572,0-1.047-0.188-1.423-0.565c-0.377-0.377-0.565-0.852-0.565-1.424v-5.967l0.741-4.134l3.237,1.403v8.697
		c0,0.572-0.189,1.047-0.566,1.424S218.751,284.733,218.179,284.733z"/>
	<path fill="#FFFFFF" d="M228.085,284.733c-0.572,0-1.047-0.188-1.423-0.565c-0.377-0.377-0.566-0.852-0.566-1.424V265.35
		c0-0.598,0.188-1.079,0.566-1.443c0.376-0.363,0.851-0.546,1.423-0.546c0.598,0,1.079,0.183,1.443,0.546
		c0.364,0.364,0.546,0.846,0.546,1.443v17.394c0,0.572-0.182,1.047-0.546,1.424C229.163,284.544,228.682,284.733,228.085,284.733z
		 M244.113,284.733c-0.572,0-1.047-0.188-1.423-0.565c-0.377-0.377-0.565-0.852-0.565-1.424v-9.594c0-1.482-0.273-2.691-0.819-3.627
		c-0.546-0.937-1.281-1.632-2.204-2.087c-0.923-0.454-1.983-0.683-3.179-0.683c-1.092,0-2.08,0.222-2.964,0.663
		c-0.884,0.442-1.586,1.034-2.106,1.774c-0.521,0.741-0.78,1.594-0.78,2.555h-2.457c0-1.638,0.396-3.101,1.19-4.388
		c0.792-1.286,1.878-2.307,3.256-3.062c1.378-0.753,2.925-1.131,4.641-1.131c1.794,0,3.399,0.384,4.816,1.15
		c1.417,0.768,2.535,1.892,3.354,3.374c0.819,1.481,1.229,3.302,1.229,5.46v9.594c0,0.572-0.189,1.047-0.565,1.424
		C245.16,284.544,244.685,284.733,244.113,284.733z"/>
	<path fill="#FFFFFF" d="M261.585,284.85c-1.898,0-3.601-0.475-5.109-1.424c-1.508-0.948-2.698-2.235-3.568-3.861
		c-0.872-1.624-1.307-3.464-1.307-5.519c0-2.053,0.474-3.899,1.423-5.537c0.949-1.639,2.236-2.932,3.861-3.881
		c1.625-0.949,3.451-1.424,5.479-1.424c2.028,0,3.848,0.475,5.46,1.424c1.612,0.949,2.892,2.242,3.841,3.881
		c0.949,1.638,1.424,3.484,1.424,5.537h-1.521c0,2.055-0.436,3.895-1.307,5.519c-0.872,1.626-2.061,2.913-3.568,3.861
		C265.186,284.375,263.483,284.85,261.585,284.85z M262.365,281.34c1.326,0,2.509-0.318,3.549-0.956
		c1.04-0.637,1.858-1.508,2.457-2.613c0.598-1.104,0.897-2.346,0.897-3.725c0-1.403-0.299-2.657-0.897-3.763
		c-0.599-1.105-1.417-1.976-2.457-2.613c-1.04-0.637-2.223-0.955-3.549-0.955c-1.3,0-2.477,0.318-3.53,0.955
		c-1.053,0.638-1.885,1.508-2.496,2.613c-0.611,1.105-0.917,2.359-0.917,3.763c0,1.379,0.305,2.62,0.917,3.725
		c0.61,1.105,1.443,1.977,2.496,2.613C259.889,281.022,261.065,281.34,262.365,281.34z M271.101,284.733
		c-0.572,0-1.047-0.188-1.423-0.565c-0.377-0.377-0.565-0.852-0.565-1.424v-5.967l0.741-4.134l3.237,1.403v8.697
		c0,0.572-0.189,1.047-0.566,1.424S271.673,284.733,271.101,284.733z"/>
	<path fill="#FFFFFF" d="M287.91,284.85c-1.95,0-3.672-0.462-5.167-1.385s-2.671-2.197-3.529-3.822
		c-0.858-1.624-1.287-3.49-1.287-5.597c0-2.131,0.461-4.01,1.385-5.635c0.922-1.625,2.19-2.899,3.802-3.822
		c1.612-0.923,3.471-1.385,5.577-1.385c2.08,0,3.925,0.462,5.538,1.385c1.612,0.923,2.879,2.197,3.802,3.822
		s1.385,3.504,1.385,5.635h-2.302c0,2.106-0.396,3.973-1.189,5.597c-0.793,1.625-1.879,2.899-3.256,3.822
		C291.29,284.388,289.704,284.85,287.91,284.85z M288.612,293.546c-1.846,0-3.575-0.364-5.187-1.092
		c-1.612-0.728-2.978-1.794-4.095-3.197c-0.338-0.443-0.462-0.897-0.37-1.365c0.091-0.468,0.344-0.846,0.76-1.131
		c0.468-0.313,0.956-0.417,1.462-0.313c0.507,0.104,0.917,0.364,1.229,0.78c0.702,0.884,1.586,1.572,2.652,2.066
		c1.065,0.494,2.274,0.741,3.627,0.741c1.248,0,2.398-0.299,3.451-0.896c1.053-0.599,1.892-1.482,2.516-2.652s0.936-2.6,0.936-4.29
		v-5.538l1.287-3.432l2.535,0.818v8.425c0,2.054-0.456,3.919-1.365,5.596c-0.91,1.678-2.178,3.01-3.803,3.998
		C292.622,293.052,290.743,293.546,288.612,293.546z M288.69,281.34c1.352,0,2.548-0.313,3.588-0.937
		c1.04-0.624,1.853-1.482,2.438-2.574s0.877-2.353,0.877-3.783c0-1.429-0.292-2.696-0.877-3.802s-1.398-1.97-2.438-2.594
		c-1.04-0.624-2.236-0.936-3.588-0.936c-1.353,0-2.548,0.312-3.588,0.936c-1.041,0.624-1.859,1.488-2.457,2.594
		c-0.599,1.105-0.897,2.373-0.897,3.802c0,1.431,0.298,2.691,0.897,3.783c0.598,1.092,1.417,1.95,2.457,2.574
		C286.142,281.027,287.338,281.34,288.69,281.34z"/>
	<path fill="#FFFFFF" d="M315.365,284.85c-2.158,0-4.076-0.462-5.753-1.385s-2.989-2.197-3.938-3.822
		c-0.949-1.624-1.424-3.49-1.424-5.597c0-2.131,0.449-4.01,1.346-5.635s2.139-2.899,3.725-3.822s3.405-1.385,5.46-1.385
		c2.028,0,3.77,0.449,5.226,1.346c1.456,0.897,2.567,2.132,3.334,3.705c0.768,1.573,1.151,3.387,1.151,5.44
		c0,0.494-0.169,0.903-0.507,1.229s-0.768,0.487-1.287,0.487h-15.717v-3.12h15.6l-1.6,1.093c-0.025-1.3-0.285-2.464-0.779-3.491
		c-0.494-1.026-1.196-1.839-2.105-2.438c-0.911-0.598-2.016-0.896-3.315-0.896c-1.482,0-2.749,0.325-3.803,0.975
		c-1.054,0.65-1.853,1.541-2.398,2.672s-0.819,2.412-0.819,3.841c0,1.431,0.325,2.705,0.975,3.822
		c0.65,1.118,1.547,2.003,2.691,2.652c1.145,0.65,2.457,0.975,3.939,0.975c0.805,0,1.631-0.149,2.477-0.448
		c0.844-0.299,1.527-0.644,2.047-1.033c0.391-0.286,0.813-0.436,1.268-0.449c0.455-0.013,0.852,0.124,1.189,0.41
		c0.441,0.39,0.676,0.818,0.702,1.287c0.026,0.468-0.183,0.871-0.624,1.209c-0.884,0.701-1.982,1.273-3.295,1.716
		C317.816,284.629,316.561,284.85,315.365,284.85z"/>
	<path fill="#FFFFFF" d="M331.55,284.733c-0.572,0-1.047-0.188-1.423-0.565c-0.378-0.377-0.566-0.852-0.566-1.424v-17.354
		c0-0.598,0.188-1.079,0.566-1.443c0.376-0.363,0.851-0.546,1.423-0.546c0.598,0,1.079,0.183,1.442,0.546
		c0.364,0.364,0.547,0.846,0.547,1.443v17.354c0,0.572-0.183,1.047-0.547,1.424C332.629,284.544,332.148,284.733,331.55,284.733z
		 M344.576,284.733c-0.572,0-1.047-0.188-1.424-0.565s-0.565-0.852-0.565-1.424V271.59c0-1.639-0.403-2.854-1.209-3.647
		c-0.806-0.792-1.859-1.189-3.159-1.189c-1.352,0-2.471,0.469-3.354,1.404c-0.885,0.937-1.326,2.133-1.326,3.588h-2.457
		c0-1.689,0.338-3.179,1.014-4.465c0.676-1.287,1.611-2.295,2.809-3.022c1.195-0.729,2.561-1.093,4.095-1.093
		c1.481,0,2.794,0.326,3.938,0.976c1.145,0.65,2.034,1.605,2.672,2.866c0.637,1.262,0.955,2.788,0.955,4.583v11.153
		c0,0.572-0.182,1.047-0.546,1.424S345.174,284.733,344.576,284.733z M357.563,284.733c-0.572,0-1.047-0.188-1.424-0.565
		s-0.564-0.852-0.564-1.424V271.59c0-1.639-0.404-2.854-1.209-3.647c-0.807-0.792-1.859-1.189-3.16-1.189
		c-1.352,0-2.463,0.469-3.334,1.404c-0.871,0.937-1.307,2.133-1.307,3.588h-3.236c0-1.689,0.363-3.179,1.092-4.465
		c0.728-1.287,1.748-2.295,3.062-3.022c1.313-0.729,2.813-1.093,4.505-1.093c1.481,0,2.794,0.326,3.938,0.976
		c1.144,0.65,2.034,1.605,2.671,2.866c0.637,1.262,0.956,2.788,0.956,4.583v11.153c0,0.572-0.183,1.047-0.546,1.424
		C358.642,284.544,358.16,284.733,357.563,284.733z"/>
	<path fill="#FFFFFF" d="M376.166,284.85c-2.159,0-4.076-0.462-5.754-1.385c-1.676-0.923-2.989-2.197-3.938-3.822
		c-0.949-1.624-1.423-3.49-1.423-5.597c0-2.131,0.448-4.01,1.346-5.635c0.896-1.625,2.138-2.899,3.724-3.822s3.405-1.385,5.46-1.385
		c2.028,0,3.77,0.449,5.227,1.346c1.455,0.897,2.566,2.132,3.334,3.705c0.767,1.573,1.15,3.387,1.15,5.44
		c0,0.494-0.169,0.903-0.507,1.229s-0.767,0.487-1.286,0.487H367.78v-3.12h15.601l-1.6,1.093c-0.026-1.3-0.286-2.464-0.779-3.491
		c-0.494-1.026-1.197-1.839-2.106-2.438c-0.911-0.598-2.016-0.896-3.315-0.896c-1.482,0-2.749,0.325-3.803,0.975
		c-1.053,0.65-1.852,1.541-2.398,2.672c-0.545,1.131-0.818,2.412-0.818,3.841c0,1.431,0.324,2.705,0.975,3.822
		c0.65,1.118,1.547,2.003,2.691,2.652c1.144,0.65,2.457,0.975,3.939,0.975c0.805,0,1.631-0.149,2.476-0.448s1.527-0.644,2.048-1.033
		c0.39-0.286,0.813-0.436,1.268-0.449c0.455-0.013,0.852,0.124,1.189,0.41c0.441,0.39,0.676,0.818,0.701,1.287
		c0.026,0.468-0.182,0.871-0.623,1.209c-0.885,0.701-1.983,1.273-3.296,1.716C378.615,284.629,377.361,284.85,376.166,284.85z"/>
	<path fill="#FFFFFF" d="M392.35,284.733c-0.572,0-1.047-0.188-1.424-0.565s-0.565-0.852-0.565-1.424V265.35
		c0-0.598,0.188-1.079,0.565-1.443c0.377-0.363,0.852-0.546,1.424-0.546c0.598,0,1.078,0.183,1.443,0.546
		c0.363,0.364,0.545,0.846,0.545,1.443v17.394c0,0.572-0.182,1.047-0.545,1.424C393.428,284.544,392.947,284.733,392.35,284.733z
		 M408.379,284.733c-0.572,0-1.047-0.188-1.424-0.565s-0.565-0.852-0.565-1.424v-9.594c0-1.482-0.272-2.691-0.819-3.627
		c-0.546-0.937-1.281-1.632-2.203-2.087c-0.924-0.454-1.982-0.683-3.179-0.683c-1.092,0-2.08,0.222-2.964,0.663
		c-0.885,0.442-1.586,1.034-2.105,1.774c-0.521,0.741-0.781,1.594-0.781,2.555h-2.457c0-1.638,0.396-3.101,1.19-4.388
		c0.792-1.286,1.878-2.307,3.257-3.062c1.377-0.753,2.924-1.131,4.641-1.131c1.794,0,3.398,0.384,4.816,1.15
		c1.416,0.768,2.535,1.892,3.354,3.374c0.819,1.481,1.229,3.302,1.229,5.46v9.594c0,0.572-0.188,1.047-0.564,1.424
		C409.425,284.544,408.95,284.733,408.379,284.733z"/>
	<path fill="#FFFFFF" d="M416.061,267.494c-0.545,0-0.988-0.156-1.325-0.468c-0.339-0.312-0.507-0.702-0.507-1.17
		c0-0.52,0.168-0.937,0.507-1.248c0.337-0.313,0.78-0.468,1.325-0.468h9.01c0.546,0,0.988,0.155,1.326,0.468
		c0.338,0.312,0.507,0.729,0.507,1.248c0,0.468-0.169,0.858-0.507,1.17s-0.78,0.468-1.326,0.468H416.061z M424.719,284.693
		c-1.3,0-2.47-0.331-3.51-0.994s-1.859-1.566-2.457-2.711c-0.598-1.144-0.896-2.431-0.896-3.861v-18.603
		c0-0.571,0.182-1.04,0.546-1.404c0.364-0.363,0.831-0.546,1.403-0.546s1.04,0.183,1.404,0.546c0.364,0.364,0.547,0.833,0.547,1.404
		v18.603c0,1.041,0.285,1.911,0.857,2.613s1.273,1.053,2.105,1.053h1.326c0.469,0,0.864,0.183,1.189,0.547s0.488,0.832,0.488,1.403
		c0,0.572-0.215,1.04-0.645,1.404c-0.428,0.364-0.98,0.546-1.656,0.546H424.719z"/>
	<path fill="#FFFFFF" d="M454.086,285.083c-1.664,0-3.251-0.26-4.758-0.779c-1.509-0.521-2.822-1.248-3.939-2.185
		c-1.118-0.936-1.938-2.015-2.457-3.236c-0.26-0.547-0.254-1.054,0.02-1.521s0.734-0.767,1.385-0.896
		c0.468-0.104,0.929-0.033,1.384,0.214s0.8,0.618,1.034,1.111c0.312,0.65,0.825,1.248,1.54,1.794s1.58,0.989,2.594,1.326
		c1.014,0.339,2.08,0.507,3.198,0.507c1.248,0,2.398-0.194,3.451-0.585c1.053-0.39,1.904-0.955,2.555-1.696
		c0.649-0.741,0.975-1.657,0.975-2.749c0-1.378-0.54-2.613-1.618-3.705c-1.079-1.092-2.854-1.769-5.323-2.028
		c-3.225-0.312-5.76-1.261-7.605-2.847c-1.847-1.586-2.769-3.549-2.769-5.89c0-1.716,0.48-3.172,1.442-4.367
		c0.962-1.196,2.269-2.106,3.92-2.73c1.65-0.624,3.49-0.936,5.519-0.936c1.585,0,2.97,0.221,4.153,0.662
		c1.183,0.442,2.217,1.054,3.101,1.833c0.884,0.78,1.65,1.704,2.301,2.77c0.364,0.572,0.514,1.111,0.448,1.618
		c-0.064,0.507-0.318,0.904-0.76,1.189c-0.494,0.313-1.027,0.378-1.6,0.195c-0.572-0.182-1.001-0.52-1.287-1.014
		c-0.416-0.754-0.923-1.391-1.521-1.911c-0.599-0.52-1.301-0.93-2.106-1.229s-1.755-0.448-2.847-0.448
		c-1.925-0.026-3.536,0.331-4.836,1.072c-1.301,0.741-1.95,1.879-1.95,3.412c0,0.78,0.201,1.528,0.604,2.243
		s1.144,1.332,2.224,1.852c1.078,0.521,2.632,0.885,4.66,1.093c3.094,0.312,5.505,1.254,7.234,2.827
		c1.729,1.573,2.594,3.646,2.594,6.221c0,1.481-0.307,2.769-0.917,3.86c-0.611,1.093-1.43,2.009-2.457,2.75s-2.197,1.294-3.51,1.657
		C456.848,284.901,455.489,285.083,454.086,285.083z"/>
	<path fill="#FFFFFF" d="M479.279,283.835c-0.494,0.209-0.955,0.229-1.384,0.059c-0.43-0.169-0.774-0.5-1.034-0.994l-8.931-16.965
		c-0.26-0.494-0.292-0.969-0.098-1.424c0.195-0.454,0.539-0.786,1.034-0.994c0.493-0.208,0.961-0.228,1.403-0.059
		s0.78,0.501,1.015,0.994l8.541,16.965c0.259,0.494,0.356,0.97,0.292,1.424C480.053,283.296,479.774,283.628,479.279,283.835z
		 M474.678,294.054c-0.26,0-0.572-0.078-0.936-0.234c-1.145-0.521-1.457-1.34-0.937-2.457l11.896-26.871
		c0.52-1.092,1.338-1.404,2.456-0.936c1.171,0.494,1.495,1.313,0.976,2.457l-11.935,26.832
		C475.887,293.651,475.38,294.054,474.678,294.054z"/>
	<path fill="#FFFFFF" d="M499.638,284.85c-1.82,0-3.504-0.279-5.051-0.839c-1.548-0.559-2.75-1.268-3.607-2.125
		c-0.391-0.416-0.553-0.891-0.487-1.424c0.064-0.532,0.317-0.969,0.76-1.307c0.521-0.415,1.034-0.591,1.541-0.526
		c0.507,0.065,0.941,0.292,1.307,0.683c0.441,0.494,1.15,0.955,2.125,1.385c0.976,0.429,2.061,0.644,3.257,0.644
		c1.508,0,2.658-0.247,3.451-0.741s1.202-1.131,1.229-1.911c0.025-0.78-0.345-1.456-1.111-2.028
		c-0.768-0.571-2.165-1.039-4.192-1.404c-2.627-0.52-4.531-1.3-5.714-2.34c-1.184-1.039-1.774-2.313-1.774-3.821
		c0-1.326,0.39-2.425,1.17-3.296s1.78-1.521,3.003-1.95c1.222-0.429,2.496-0.644,3.822-0.644c1.716,0,3.237,0.273,4.563,0.819
		c1.326,0.546,2.38,1.301,3.159,2.262c0.364,0.416,0.533,0.853,0.507,1.307c-0.025,0.455-0.247,0.839-0.662,1.15
		c-0.417,0.286-0.911,0.377-1.482,0.273c-0.572-0.104-1.053-0.338-1.443-0.702c-0.649-0.624-1.352-1.053-2.105-1.287
		c-0.755-0.234-1.625-0.351-2.613-0.351c-1.145,0-2.112,0.194-2.905,0.585c-0.794,0.39-1.189,0.962-1.189,1.716
		c0,0.468,0.123,0.891,0.37,1.268s0.734,0.715,1.463,1.014c0.728,0.299,1.794,0.592,3.198,0.878c1.949,0.39,3.49,0.884,4.621,1.481
		c1.131,0.599,1.943,1.294,2.438,2.087c0.493,0.793,0.741,1.71,0.741,2.749c0,1.196-0.319,2.275-0.956,3.237
		s-1.573,1.729-2.808,2.301C503.024,284.564,501.484,284.85,499.638,284.85z"/>
	<path fill="#FFFFFF" d="M512.156,267.494c-0.546,0-0.988-0.156-1.326-0.468s-0.507-0.702-0.507-1.17
		c0-0.52,0.169-0.937,0.507-1.248c0.338-0.313,0.78-0.468,1.326-0.468h9.009c0.546,0,0.987,0.155,1.326,0.468
		c0.337,0.312,0.507,0.729,0.507,1.248c0,0.468-0.17,0.858-0.507,1.17c-0.339,0.312-0.78,0.468-1.326,0.468H512.156z
		 M520.815,284.693c-1.301,0-2.471-0.331-3.511-0.994s-1.859-1.566-2.457-2.711c-0.598-1.144-0.896-2.431-0.896-3.861v-18.603
		c0-0.571,0.182-1.04,0.546-1.404c0.363-0.363,0.832-0.546,1.404-0.546c0.571,0,1.039,0.183,1.403,0.546
		c0.364,0.364,0.546,0.833,0.546,1.404v18.603c0,1.041,0.286,1.911,0.858,2.613c0.571,0.702,1.273,1.053,2.106,1.053h1.325
		c0.469,0,0.864,0.183,1.189,0.547s0.488,0.832,0.488,1.403c0,0.572-0.215,1.04-0.644,1.404c-0.43,0.364-0.982,0.546-1.658,0.546
		H520.815z"/>
	<path fill="#FFFFFF" d="M538.715,284.85c-2.158,0-4.076-0.462-5.753-1.385s-2.99-2.197-3.938-3.822
		c-0.949-1.624-1.424-3.49-1.424-5.597c0-2.131,0.448-4.01,1.346-5.635c0.896-1.625,2.138-2.899,3.725-3.822
		c1.585-0.923,3.405-1.385,5.46-1.385c2.027,0,3.77,0.449,5.226,1.346c1.456,0.897,2.567,2.132,3.335,3.705
		c0.767,1.573,1.15,3.387,1.15,5.44c0,0.494-0.17,0.903-0.507,1.229c-0.339,0.325-0.768,0.487-1.287,0.487H530.33v-3.12h15.6
		l-1.599,1.093c-0.026-1.3-0.287-2.464-0.78-3.491c-0.494-1.026-1.196-1.839-2.106-2.438c-0.91-0.598-2.015-0.896-3.314-0.896
		c-1.482,0-2.75,0.325-3.803,0.975c-1.053,0.65-1.853,1.541-2.398,2.672s-0.819,2.412-0.819,3.841c0,1.431,0.325,2.705,0.976,3.822
		c0.649,1.118,1.546,2.003,2.69,2.652c1.145,0.65,2.457,0.975,3.939,0.975c0.806,0,1.631-0.149,2.477-0.448
		c0.845-0.299,1.526-0.644,2.047-1.033c0.391-0.286,0.813-0.436,1.268-0.449c0.455-0.013,0.852,0.124,1.189,0.41
		c0.442,0.39,0.676,0.818,0.702,1.287c0.025,0.468-0.182,0.871-0.624,1.209c-0.884,0.701-1.982,1.273-3.295,1.716
		C541.165,284.629,539.91,284.85,538.715,284.85z"/>
	<path fill="#FFFFFF" d="M554.899,284.733c-0.572,0-1.047-0.188-1.424-0.565s-0.565-0.852-0.565-1.424v-17.354
		c0-0.598,0.188-1.079,0.565-1.443c0.377-0.363,0.852-0.546,1.424-0.546c0.598,0,1.078,0.183,1.443,0.546
		c0.363,0.364,0.546,0.846,0.546,1.443v17.354c0,0.572-0.183,1.047-0.546,1.424C555.977,284.544,555.496,284.733,554.899,284.733z
		 M567.925,284.733c-0.572,0-1.047-0.188-1.424-0.565s-0.565-0.852-0.565-1.424V271.59c0-1.639-0.403-2.854-1.209-3.647
		c-0.807-0.792-1.859-1.189-3.159-1.189c-1.353,0-2.471,0.469-3.354,1.404c-0.885,0.937-1.326,2.133-1.326,3.588h-2.457
		c0-1.689,0.337-3.179,1.014-4.465c0.676-1.287,1.612-2.295,2.808-3.022c1.196-0.729,2.562-1.093,4.096-1.093
		c1.481,0,2.794,0.326,3.938,0.976c1.145,0.65,2.034,1.605,2.672,2.866c0.637,1.262,0.955,2.788,0.955,4.583v11.153
		c0,0.572-0.182,1.047-0.546,1.424S568.523,284.733,567.925,284.733z M580.911,284.733c-0.572,0-1.047-0.188-1.423-0.565
		c-0.378-0.377-0.565-0.852-0.565-1.424V271.59c0-1.639-0.404-2.854-1.209-3.647c-0.807-0.792-1.859-1.189-3.159-1.189
		c-1.353,0-2.464,0.469-3.335,1.404c-0.871,0.937-1.307,2.133-1.307,3.588h-3.236c0-1.689,0.363-3.179,1.092-4.465
		c0.728-1.287,1.748-2.295,3.062-3.022c1.313-0.729,2.813-1.093,4.504-1.093c1.482,0,2.795,0.326,3.939,0.976
		c1.144,0.65,2.034,1.605,2.672,2.866c0.637,1.262,0.955,2.788,0.955,4.583v11.153c0,0.572-0.183,1.047-0.546,1.424
		C581.99,284.544,581.509,284.733,580.911,284.733z"/>
</g>
</svg>
