<?xml version="1.0" encoding="utf-8"?>
<!-- Generator: Adobe Illustrator 17.0.0, SVG Export Plug-In . SVG Version: 6.00 Build 0)  -->
<!DOCTYPE svg PUBLIC "-//W3C//DTD SVG 1.1//EN" "http://www.w3.org/Graphics/SVG/1.1/DTD/svg11.dtd">
<svg version="1.1" id="Layer_1" xmlns="http://www.w3.org/2000/svg" xmlns:xlink="http://www.w3.org/1999/xlink" x="0px" y="0px"
	 width="233.565px" height="55px" viewBox="0 0 233.565 55" enable-background="new 0 0 233.565 55" xml:space="preserve">
<path fill="#0091D0" d="M9.872,19.409c0.022-0.049,0.045-0.097,0.068-0.146C9.917,19.313,9.894,19.361,9.872,19.409z"/>
<path fill="#0091D0" d="M9.657,19.893c0.037-0.087,0.075-0.172,0.113-0.258C9.731,19.72,9.693,19.807,9.657,19.893z"/>
<path fill="#0091D0" d="M9.467,20.351c0.042-0.106,0.085-0.21,0.129-0.315C9.552,20.14,9.509,20.245,9.467,20.351z"/>
<path fill="#0091D0" d="M19.901,45.419c-0.089-0.038-0.178-0.077-0.267-0.116C19.722,45.342,19.811,45.381,19.901,45.419z"/>
<path fill="#0091D0" d="M20.351,45.604c-0.106-0.042-0.21-0.085-0.315-0.129C20.139,45.52,20.245,45.563,20.351,45.604z"/>
<path fill="#0091D0" d="M45.418,35.171c-0.038,0.089-0.077,0.178-0.116,0.267C45.341,35.35,45.38,35.26,45.418,35.171z"/>
<path fill="#0091D0" d="M45.604,34.721c-0.042,0.106-0.085,0.21-0.129,0.315C45.52,34.932,45.562,34.827,45.604,34.721z"/>
<path fill="#0091D0" d="M35.662,9.872c0.049,0.022,0.097,0.045,0.145,0.068C35.759,9.917,35.71,9.894,35.662,9.872z"/>
<path fill="#0091D0" d="M35.179,9.657c0.087,0.037,0.172,0.075,0.258,0.113C35.351,9.731,35.265,9.694,35.179,9.657z"/>
<path fill="#0091D0" d="M34.721,9.468c0.106,0.042,0.21,0.085,0.315,0.129C34.932,9.552,34.827,9.51,34.721,9.468z"/>
<path fill="#0091D0" d="M2.358,16.373c0.06-0.135,0.122-0.27,0.184-0.404C2.48,16.103,2.419,16.238,2.358,16.373z"/>
<path fill="#0091D0" d="M2.122,16.923c0.033-0.077,0.065-0.153,0.097-0.23C2.186,16.768,2.153,16.846,2.122,16.923z"/>
<path fill="#0091D0" d="M15.88,52.488C6.499,48.099,0,38.577,0,27.536c0-3.757,0.754-7.338,2.115-10.6l6.451-1.773l0.895,5.2
	c-0.882,2.219-1.366,4.639-1.366,7.173c0,7.638,4.406,14.246,10.814,17.424l-4.86,0.837L15.88,52.488z"/>
<path fill="#0091D0" d="M16.372,52.712c-0.135-0.06-0.27-0.122-0.404-0.184C16.102,52.592,16.236,52.653,16.372,52.712z"/>
<path fill="#0091D0" d="M16.922,52.95c-0.077-0.032-0.153-0.065-0.23-0.097C16.768,52.886,16.845,52.918,16.922,52.95z"/>
<path fill="#ED1C24" d="M52.488,39.192c-4.389,9.381-13.911,15.88-24.952,15.88c-3.757,0-7.338-0.753-10.6-2.115l-1.773-6.451
	l5.2-0.895c2.219,0.882,4.639,1.366,7.173,1.366c7.638,0,14.246-4.406,17.425-10.814l0.837,4.86L52.488,39.192z"/>
<path fill="#0091D0" d="M52.712,38.7c-0.06,0.135-0.122,0.27-0.184,0.404C52.591,38.97,52.652,38.834,52.712,38.7z"/>
<path fill="#0091D0" d="M52.95,38.15c-0.033,0.077-0.065,0.153-0.097,0.229C52.885,38.304,52.918,38.226,52.95,38.15z"/>
<path fill="#C6D92D" d="M39.191,2.584c9.381,4.389,15.88,13.911,15.88,24.952c0,3.757-0.753,7.338-2.115,10.6l-6.451,1.773
	l-0.895-5.2c0.882-2.219,1.366-4.639,1.366-7.173c0-7.638-4.406-14.246-10.814-17.424l4.86-0.837L39.191,2.584z"/>
<path fill="#0091D0" d="M38.699,2.36c0.135,0.06,0.27,0.122,0.404,0.184C38.969,2.48,38.834,2.42,38.699,2.36z"/>
<path fill="#0091D0" d="M38.149,2.122c0.077,0.033,0.153,0.065,0.231,0.097C38.304,2.186,38.226,2.154,38.149,2.122z"/>
<path fill="#F7EC00" d="M27.536,0c3.757,0,7.338,0.753,10.6,2.115l1.773,6.451l-5.201,0.896c-2.219-0.882-4.639-1.366-7.173-1.366
	c-7.638,0-14.246,4.406-17.424,10.814l-0.836-4.861l-6.692,1.832C6.973,6.5,16.495,0,27.536,0z"/>
<path fill="#F9C51D" stroke="#F9C51D" stroke-width="0.5" stroke-miterlimit="2.6131" d="M15.242,35.339h0.624v7.31
	c-0.212-0.159-0.419-0.323-0.624-0.49V35.339z"/>
<path fill="#F9C51D" stroke="#F9C51D" stroke-width="0.5" stroke-miterlimit="2.6131" d="M23.751,35.339h0.624v10.944
	c-0.209-0.034-0.417-0.072-0.624-0.112V35.339z"/>
<path fill="#F9C51D" stroke="#F9C51D" stroke-width="0.5" stroke-miterlimit="2.6131" d="M19.471,33.127h0.654v11.95
	c-0.22-0.091-0.438-0.185-0.654-0.283V33.127z"/>
<path fill="#F9C51D" stroke="#FFFFFF" stroke-width="0.5" stroke-miterlimit="2.6131" d="M15.024,35.038
	c0.13-0.716,0.226-2.045-0.204-2.545l-1.327-1.54C13.435,32.415,13.346,34.902,15.024,35.038z"/>
<path fill="#F9C51D" stroke="#FFFFFF" stroke-width="0.5" stroke-miterlimit="2.6131" d="M15.024,31.116
	c0.13-0.716,0.226-2.045-0.204-2.545l-1.327-1.54C13.435,28.493,13.346,30.982,15.024,31.116z"/>
<path fill="#F9C51D" stroke="#FFFFFF" stroke-width="0.5" stroke-miterlimit="2.6131" d="M15.024,26.76
	c0.13-0.716,0.226-2.045-0.204-2.545l-1.327-1.54C13.435,24.137,13.346,26.625,15.024,26.76z"/>
<path fill="#F9C51D" stroke="#FFFFFF" stroke-width="0.5" stroke-miterlimit="2.6131" d="M15.242,22.839
	c0.13-0.716,0.226-2.045-0.204-2.545l-1.327-1.54C13.653,20.216,13.564,22.705,15.242,22.839z"/>
<path fill="#F9C51D" stroke="#FFFFFF" stroke-width="0.5" stroke-miterlimit="2.6131" d="M15.891,19.242
	c0.276-0.674,0.647-1.953,0.331-2.531l-0.977-1.783C14.882,16.345,14.278,18.761,15.891,19.242z"/>
<path fill="#F9C51D" stroke="#FFFFFF" stroke-width="1.4998" stroke-miterlimit="2.6131" d="M19.83,6.345
	c-0.519,1.367-1.851,5.07-0.06,5.722C21.399,11.292,20.625,8.81,19.83,6.345z"/>
<path fill="#F9C51D" stroke="#FFFFFF" stroke-width="0.5" stroke-miterlimit="2.6131" d="M24.588,35.038
	c-0.13-0.716-0.226-2.045,0.204-2.545l1.327-1.54C26.178,32.415,26.267,34.902,24.588,35.038z"/>
<path fill="#F9C51D" stroke="#FFFFFF" stroke-width="0.5" stroke-miterlimit="2.6131" d="M24.588,31.116
	c-0.13-0.716-0.226-2.045,0.204-2.545l1.327-1.54C26.178,28.493,26.267,30.982,24.588,31.116z"/>
<path fill="#F9C51D" stroke="#FFFFFF" stroke-width="0.5" stroke-miterlimit="2.6131" d="M24.588,26.76
	c-0.13-0.716-0.226-2.045,0.204-2.545l1.327-1.54C26.178,24.137,26.267,26.625,24.588,26.76z"/>
<path fill="#F9C51D" stroke="#FFFFFF" stroke-width="0.5" stroke-miterlimit="2.6131" d="M24.371,22.839
	c-0.13-0.716-0.226-2.045,0.204-2.545l1.327-1.54C25.961,20.216,26.049,22.705,24.371,22.839z"/>
<path fill="#F9C51D" stroke="#FFFFFF" stroke-width="0.5" stroke-miterlimit="2.6131" d="M23.722,19.242
	c-0.276-0.674-0.647-1.953-0.331-2.531l0.977-1.783C24.731,16.345,25.336,18.761,23.722,19.242z"/>
<path fill="#F9C51D" stroke="#FFFFFF" stroke-width="0.5" stroke-miterlimit="2.6131" d="M15.975,35.038
	c-0.13-0.716-0.226-2.045,0.204-2.545l1.135-1.317c0.06,0.225,0.131,0.44,0.217,0.639C17.541,33.229,17.353,34.927,15.975,35.038z"
	/>
<path fill="#F9C51D" stroke="#FFFFFF" stroke-width="0.5" stroke-miterlimit="2.6131" d="M15.975,31.116
	c-0.13-0.716-0.226-2.045,0.204-2.545l1.327-1.54c0.012,0.282,0.023,0.605,0.024,0.939l-0.343-0.405
	c-0.135,0.64-0.182,1.709-0.045,2.732C16.91,30.754,16.544,31.071,15.975,31.116z"/>
<path fill="#F9C51D" stroke="#FFFFFF" stroke-width="0.5" stroke-miterlimit="2.6131" d="M15.975,26.76
	c-0.13-0.716-0.226-2.045,0.204-2.545l0.989-1.148c-0.01,0.708,0.011,1.61,0.148,2.436C17.109,26.186,16.712,26.7,15.975,26.76
	L15.975,26.76z M17.469,22.72l0.038-0.043l0.004,0.1L17.469,22.72z"/>
<path fill="#F9C51D" stroke="#FFFFFF" stroke-width="0.5" stroke-miterlimit="2.6131" d="M15.757,22.839
	c-0.13-0.716-0.226-2.045,0.204-2.545l1.23-1.427l0.001,0.018l0.002,0.036l0.001,0.018l0.001,0.018l0.001,0.018l0.001,0.018
	l0.001,0.018v0.007l0.001,0.011l0.001,0.018l0.001,0.018l0.001,0.018l0.001,0.018l0.001,0.018l0.001,0.013v0.005l0.001,0.018
	l0.001,0.018l0.001,0.018l0.001,0.018l0.001,0.018l0.003,0.033v0.003l0.001,0.018l0.001,0.018l0.001,0.018l0.001,0.018l0.001,0.018
	l0.001,0.005l0.001,0.012l0.002,0.018l0.002,0.018l0.002,0.018l0.002,0.018l0.005,0.054l0.002,0.018l0.002,0.018l0.002,0.018
	l0.002,0.018l0.004,0.036l0.002,0.018l0.002,0.018l0.002,0.018l0.002,0.018l0.004,0.036l0.002,0.018l0.002,0.018l0.002,0.018
	l0.002,0.018l0.002,0.018l0.005,0.036l0.002,0.018l0.002,0.018l0.003,0.018l0.002,0.018l0.005,0.035l0.003,0.018l0.003,0.018
	l0.003,0.018l0.003,0.018l0,0C17.277,21.331,17.007,22.739,15.757,22.839z"/>
<path fill="#F9C51D" stroke="#FFFFFF" stroke-width="0.5" stroke-miterlimit="2.6131" d="M23.639,35.038
	c0.13-0.716,0.226-2.045-0.204-2.545l-1.312-1.523l-0.019,0.098C22.045,32.542,22.004,34.905,23.639,35.038z"/>
<path fill="#FFCB05" stroke="#FFFFFF" stroke-width="0.5" stroke-miterlimit="2.6131" d="M23.639,31.116
	c0.13-0.716,0.226-2.045-0.204-2.545l-1.327-1.54c-0.011,0.263-0.022,0.562-0.024,0.873l0.197-0.267
	c0.02,0.502,0.043,1.296-0.012,2.124C22.467,30.492,22.865,31.055,23.639,31.116z"/>
<path fill="#F9C51D" stroke="#FFFFFF" stroke-width="0.5" stroke-miterlimit="2.6131" d="M23.639,26.76
	c0.13-0.716,0.226-2.045-0.204-2.545L22.3,22.898c0.01,0.631-0.005,1.424-0.106,2.178C22.359,25.962,22.752,26.689,23.639,26.76z"/>
<path fill="#F9C51D" stroke="#FFFFFF" stroke-width="0.5" stroke-miterlimit="2.6131" d="M23.857,22.839
	c0.13-0.716,0.226-2.045-0.204-2.545l-1.327-1.54C22.266,20.216,22.178,22.705,23.857,22.839z"/>
<path fill="#0074BC" d="M28.669,10.205c8.733,0.57,15.682,7.675,16.005,16.473H28.669V10.205L28.669,10.205z M32.945,42.443v-4.549
	c-0.341-0.423-0.754-0.643-1.021-1.27c0-1.822,0-3.646,0-5.468c0.199-0.079,0.408-0.088,0.612,0c0,1.55,0,3.101,0,4.651
	c0.146,0.202,0.44,0.204,0.567,0c0-1.558,0-3.116,0-4.674c0.196-0.111,0.398-0.105,0.595,0c0,1.558,0.003,3.114,0.003,4.671
	c0.107,0.202,0.409,0.196,0.536,0.003c0-1.565,0-3.132,0-4.697c0.185-0.103,0.323-0.094,0.521,0c0,1.838,0,3.675,0,5.513
	c-0.288,0.594-0.665,0.847-0.998,1.27v4.56L32.945,42.443L32.945,42.443z M36.425,35.682c-0.374-6.13,2.786-8.546,2.871-6.491
	c0.097,2.317-0.631,3.991-0.8,9.969c-0.497,0.455-1.173,0.832-1.67,1.287L36.425,35.682L36.425,35.682z M32.253,25.872h6.49
	c0-1.88-0.219-2.199-1.044-2.837c0-0.227,0-0.454,0-0.681c1.364-2.334-0.151-4.233-1.679-4.674
	c-0.007-0.189-0.015-0.379-0.022-0.567c0.538-0.214,0.494-1.134-0.494-1.265l-0.005-3.069h-1.203c0,1.929,0,3.857,0,5.786
	c-0.012,0.241-0.082,0.307-0.204,0.341h-1.135v0.454h0.931v1.203h0.363v-1.044h0.499v0.998h0.432c0-0.37,0-0.741,0-1.112
	l0.317-0.079c0-0.398,0-0.794,0-1.191c2.189,0.741,1.943,2.53,1.702,3.812h-0.59l-0.022-0.84l-4.061,0.022v0.885h3.585V22.9h-2.292
	c0,0.31,0,0.62,0,0.931c-0.789,0.13-1.049,0.054-1.203,0.749c-0.171,0.065-0.342,0.182-0.368,0.414L32.253,25.872L32.253,25.872z
	 M44.68,27.813H28.669v16.619C37.45,43.859,44.428,36.678,44.68,27.813z"/>
<path fill="#F9C51D" stroke="#FFFFFF" stroke-width="0.9998" stroke-miterlimit="2.6131" d="M18.947,33.012
	c0.13-0.716,0.612-2.639-0.238-3.645l-1.521-1.801C16.869,29.074,17.042,32.963,18.947,33.012z"/>
<path fill="#F9C51D" stroke="#FFFFFF" stroke-width="0.9998" stroke-miterlimit="2.6131" d="M18.947,27.567
	c0.13-0.716,0.612-2.639-0.238-3.645l-1.521-1.801C16.869,23.628,17.042,27.517,18.947,27.567z"/>
<path fill="#F9C51D" stroke="#FFFFFF" stroke-width="0.9998" stroke-miterlimit="2.6131" d="M18.947,22.339
	c0.13-0.716,0.612-2.639-0.238-3.645l-1.521-1.801C16.869,18.4,17.042,22.29,18.947,22.339z"/>
<path fill="#F9C51D" stroke="#FFFFFF" stroke-width="0.9998" stroke-miterlimit="2.6131" d="M18.947,17.112
	c0.13-0.716,0.612-2.639-0.238-3.645l-1.521-1.801C16.869,13.173,17.042,17.062,18.947,17.112z"/>
<path fill="#F9C51D" stroke="#FFFFFF" stroke-width="0.9998" stroke-miterlimit="2.6131" d="M20.581,33.012
	c-0.13-0.716-0.611-2.639,0.238-3.645l1.521-1.801C22.659,29.074,22.487,32.963,20.581,33.012z"/>
<path fill="#F9C51D" stroke="#FFFFFF" stroke-width="0.9998" stroke-miterlimit="2.6131" d="M20.581,27.567
	c-0.13-0.716-0.611-2.639,0.238-3.645l1.521-1.801C22.659,23.628,22.487,27.517,20.581,27.567z"/>
<path fill="#F9C51D" stroke="#FFFFFF" stroke-width="0.9998" stroke-miterlimit="2.6131" d="M20.581,22.339
	c-0.13-0.716-0.611-2.639,0.238-3.645l1.521-1.801C22.659,18.4,22.487,22.29,20.581,22.339z"/>
<path fill="#F9C51D" stroke="#FFFFFF" stroke-width="0.9998" stroke-miterlimit="2.6131" d="M20.581,17.112
	c-0.13-0.716-0.611-2.639,0.238-3.645l1.521-1.801C22.659,13.173,22.487,17.062,20.581,17.112z"/>
<g>
	<path fill="#FFFFFF" d="M64.905,43c-0.709,0-1.254-0.304-1.634-0.912c-0.38-0.607-0.418-1.254-0.114-1.938l10.678-25.499
		c0.38-0.886,1-1.33,1.862-1.33c0.912,0,1.532,0.444,1.862,1.33l10.716,25.575c0.278,0.709,0.234,1.349-0.133,1.918
		C87.774,42.715,87.223,43,86.489,43c-0.38,0-0.741-0.107-1.083-0.323c-0.342-0.215-0.589-0.513-0.741-0.893l-9.424-23.408h1.064
		l-9.576,23.408c-0.177,0.405-0.437,0.709-0.779,0.912S65.259,43,64.905,43z M66.919,36.464l1.52-3.269h14.896l1.52,3.269H66.919z"
		/>
	<path fill="#FFFFFF" d="M105.336,43.38c-2.052,0-3.971-0.386-5.757-1.159c-1.786-0.772-3.344-1.849-4.674-3.229
		s-2.369-2.995-3.116-4.845c-0.748-1.85-1.121-3.852-1.121-6.004c0-2.128,0.374-4.11,1.121-5.948
		c0.747-1.836,1.786-3.445,3.116-4.826c1.33-1.38,2.881-2.463,4.655-3.249c1.772-0.785,3.698-1.178,5.775-1.178
		c1.951,0,3.629,0.253,5.035,0.76s2.818,1.343,4.237,2.508c0.202,0.152,0.361,0.311,0.475,0.475c0.114,0.165,0.19,0.33,0.229,0.494
		c0.038,0.165,0.057,0.361,0.057,0.589c0,0.481-0.171,0.88-0.513,1.197c-0.342,0.317-0.754,0.494-1.235,0.532
		s-0.95-0.12-1.406-0.475c-0.938-0.811-1.906-1.431-2.906-1.862c-1.001-0.431-2.325-0.646-3.972-0.646
		c-1.495,0-2.9,0.304-4.218,0.912c-1.317,0.608-2.477,1.444-3.477,2.508c-1.001,1.064-1.78,2.299-2.337,3.705
		c-0.558,1.406-0.836,2.907-0.836,4.503c0,1.621,0.278,3.135,0.836,4.541c0.557,1.405,1.336,2.641,2.337,3.705
		c1,1.063,2.16,1.894,3.477,2.488c1.317,0.596,2.723,0.893,4.218,0.893c1.292,0,2.515-0.221,3.667-0.664
		c1.153-0.443,2.262-1.059,3.325-1.844c0.456-0.328,0.905-0.475,1.35-0.437c0.442,0.038,0.816,0.216,1.12,0.532
		c0.305,0.316,0.456,0.754,0.456,1.311c0,0.254-0.051,0.5-0.151,0.741c-0.102,0.241-0.254,0.462-0.456,0.665
		c-1.368,1.089-2.831,1.913-4.389,2.47C108.699,43.101,107.059,43.38,105.336,43.38z"/>
	<path fill="#FFFFFF" d="M120.156,16.97c-0.531,0-0.969-0.171-1.311-0.513s-0.513-0.779-0.513-1.311s0.171-0.969,0.513-1.311
		s0.779-0.513,1.311-0.513h20.33c0.532,0,0.97,0.171,1.312,0.513s0.513,0.779,0.513,1.311s-0.171,0.969-0.513,1.311
		s-0.779,0.513-1.312,0.513H120.156z M130.34,43c-0.558,0-1.026-0.19-1.406-0.57s-0.57-0.849-0.57-1.405V13.322h3.952v27.703
		c0,0.557-0.189,1.025-0.569,1.405C131.366,42.81,130.897,43,130.34,43z"/>
	<path fill="#FFFFFF" d="M158.08,43.38c-2.052,0-3.971-0.386-5.757-1.159c-1.786-0.772-3.344-1.849-4.674-3.229
		s-2.369-2.995-3.116-4.845s-1.121-3.852-1.121-6.004c0-2.128,0.374-4.11,1.121-5.948c0.747-1.836,1.786-3.445,3.116-4.826
		c1.33-1.38,2.882-2.463,4.655-3.249c1.772-0.785,3.698-1.178,5.775-1.178c1.951,0,3.629,0.253,5.035,0.76s2.818,1.343,4.237,2.508
		c0.202,0.152,0.361,0.311,0.475,0.475c0.114,0.165,0.19,0.33,0.229,0.494c0.038,0.165,0.057,0.361,0.057,0.589
		c0,0.481-0.171,0.88-0.513,1.197c-0.342,0.317-0.754,0.494-1.235,0.532s-0.95-0.12-1.406-0.475
		c-0.938-0.811-1.906-1.431-2.906-1.862c-1.001-0.431-2.325-0.646-3.972-0.646c-1.495,0-2.9,0.304-4.218,0.912
		c-1.317,0.608-2.477,1.444-3.477,2.508c-1.001,1.064-1.78,2.299-2.337,3.705c-0.558,1.406-0.836,2.907-0.836,4.503
		c0,1.621,0.278,3.135,0.836,4.541c0.557,1.405,1.336,2.641,2.337,3.705c1,1.063,2.159,1.894,3.477,2.488
		c1.317,0.596,2.723,0.893,4.218,0.893c1.292,0,2.515-0.221,3.667-0.664c1.153-0.443,2.262-1.059,3.325-1.844
		c0.456-0.328,0.905-0.475,1.35-0.437c0.442,0.038,0.816,0.216,1.12,0.532c0.305,0.316,0.456,0.754,0.456,1.311
		c0,0.254-0.051,0.5-0.151,0.741c-0.102,0.241-0.254,0.462-0.456,0.665c-1.368,1.089-2.831,1.913-4.389,2.47
		C161.444,43.101,159.803,43.38,158.08,43.38z"/>
	<path fill="#FFFFFF" d="M176.283,43c-0.558,0-1.026-0.19-1.406-0.57s-0.57-0.849-0.57-1.405V15.298c0-0.583,0.19-1.057,0.57-1.425
		c0.38-0.367,0.849-0.551,1.406-0.551c0.76,0,1.342,0.355,1.748,1.064l11.894,23.826h-1.216l11.59-23.826
		c0.405-0.709,0.988-1.064,1.748-1.064c0.557,0,1.026,0.184,1.406,0.551c0.38,0.368,0.569,0.842,0.569,1.425v25.727
		c0,0.557-0.196,1.025-0.589,1.405S202.578,43,202.046,43c-0.558,0-1.026-0.19-1.406-0.57s-0.569-0.849-0.569-1.405V20.77l0.76-0.19
		l-9.956,20.292c-0.432,0.659-1.001,0.988-1.71,0.988c-0.836,0-1.444-0.393-1.824-1.179l-9.842-19.722l0.76-0.19v20.254
		c0,0.557-0.19,1.025-0.57,1.405S176.839,43,176.283,43z"/>
	<path fill="#FFFFFF" d="M221.045,43.38c-1.621,0-3.167-0.253-4.636-0.76c-1.47-0.507-2.749-1.216-3.838-2.128
		c-1.09-0.912-1.888-1.963-2.394-3.154c-0.254-0.531-0.247-1.025,0.019-1.482c0.266-0.455,0.716-0.746,1.349-0.873
		c0.456-0.102,0.906-0.031,1.35,0.209c0.442,0.24,0.778,0.602,1.007,1.082c0.304,0.635,0.804,1.217,1.501,1.748
		c0.696,0.533,1.539,0.963,2.527,1.293c0.987,0.329,2.026,0.494,3.115,0.494c1.217,0,2.337-0.19,3.363-0.57
		c1.026-0.381,1.855-0.932,2.489-1.653c0.633-0.722,0.95-1.614,0.95-2.679c0-1.343-0.526-2.547-1.577-3.61
		c-1.052-1.063-2.78-1.722-5.188-1.976c-3.142-0.305-5.611-1.229-7.41-2.774c-1.799-1.545-2.697-3.458-2.697-5.738
		c0-1.672,0.468-3.09,1.405-4.256c0.938-1.165,2.21-2.052,3.819-2.66c1.608-0.608,3.401-0.912,5.377-0.912
		c1.545,0,2.895,0.215,4.047,0.646c1.152,0.431,2.16,1.026,3.021,1.786c0.86,0.76,1.608,1.659,2.242,2.698
		c0.354,0.558,0.5,1.083,0.437,1.577s-0.311,0.88-0.741,1.159c-0.481,0.304-1.001,0.367-1.558,0.19
		c-0.558-0.177-0.976-0.507-1.254-0.988c-0.405-0.734-0.899-1.355-1.482-1.862c-0.583-0.506-1.267-0.905-2.052-1.197
		c-0.785-0.291-1.71-0.437-2.774-0.437c-1.875-0.025-3.445,0.323-4.712,1.045c-1.267,0.722-1.899,1.831-1.899,3.325
		c0,0.76,0.195,1.489,0.589,2.185c0.393,0.697,1.114,1.299,2.166,1.805c1.051,0.507,2.564,0.861,4.541,1.064
		c3.015,0.304,5.363,1.223,7.049,2.754c1.685,1.533,2.527,3.554,2.527,6.062c0,1.444-0.299,2.698-0.894,3.763
		c-0.596,1.063-1.394,1.957-2.394,2.679c-1.001,0.722-2.142,1.26-3.42,1.614C223.737,43.202,222.413,43.38,221.045,43.38z"/>
</g>
</svg>
