<?xml version="1.0" encoding="utf-8"?>
<!-- Generator: Adobe Illustrator 17.0.0, SVG Export Plug-In . SVG Version: 6.00 Build 0)  -->
<!DOCTYPE svg PUBLIC "-//W3C//DTD SVG 1.1//EN" "http://www.w3.org/Graphics/SVG/1.1/DTD/svg11.dtd">
<svg version="1.1" id="Layer_1" xmlns="http://www.w3.org/2000/svg" xmlns:xlink="http://www.w3.org/1999/xlink" x="0px" y="0px"
	 width="52px" height="52.005px" viewBox="0 0 52 52.005" enable-background="new 0 0 52 52.005" xml:space="preserve">
<path fill="#0091D0" d="M9.334,18.285c0.021-0.046,0.043-0.092,0.064-0.138C9.377,18.194,9.355,18.239,9.334,18.285z"/>
<path fill="#0091D0" d="M9.131,18.742c0.035-0.082,0.071-0.163,0.107-0.244C9.201,18.579,9.165,18.661,9.131,18.742z"/>
<path fill="#0091D0" d="M8.951,19.175c0.04-0.1,0.08-0.199,0.122-0.298C9.032,18.976,8.991,19.075,8.951,19.175z"/>
<path fill="#0091D0" d="M18.817,42.878c-0.084-0.036-0.168-0.073-0.252-0.11C18.648,42.805,18.732,42.842,18.817,42.878z"/>
<path fill="#0091D0" d="M19.242,43.053c-0.1-0.04-0.199-0.08-0.298-0.122C19.042,42.973,19.142,43.014,19.242,43.053z"/>
<path fill="#0091D0" d="M42.944,33.188c-0.036,0.084-0.073,0.168-0.11,0.252C42.871,33.357,42.908,33.272,42.944,33.188z"/>
<path fill="#0091D0" d="M43.12,32.763c-0.04,0.1-0.08,0.199-0.122,0.298C43.04,32.962,43.08,32.863,43.12,32.763z"/>
<path fill="#0091D0" d="M33.719,9.267c0.046,0.021,0.092,0.043,0.137,0.064C33.811,9.31,33.765,9.288,33.719,9.267z"/>
<path fill="#0091D0" d="M33.263,9.064c0.082,0.035,0.163,0.071,0.244,0.107C33.425,9.134,33.344,9.099,33.263,9.064z"/>
<path fill="#0091D0" d="M32.83,8.885c0.1,0.04,0.199,0.08,0.298,0.122C33.029,8.965,32.93,8.925,32.83,8.885z"/>
<path fill="#0091D0" d="M2.23,15.414c0.057-0.128,0.115-0.255,0.174-0.382C2.345,15.159,2.287,15.286,2.23,15.414z"/>
<path fill="#0091D0" d="M2.006,15.934c0.031-0.073,0.061-0.145,0.092-0.217C2.067,15.788,2.036,15.861,2.006,15.934z"/>
<path fill="#0091D0" d="M15.015,49.562C6.145,45.412,0,36.409,0,25.969c0-3.552,0.713-6.938,2-10.023l6.1-1.676l0.846,4.917
	c-0.834,2.098-1.292,4.386-1.292,6.782c0,7.222,4.166,13.47,10.225,16.475l-4.595,0.791L15.015,49.562z"/>
<path fill="#0091D0" d="M15.48,49.774c-0.128-0.057-0.255-0.115-0.382-0.174C15.225,49.66,15.352,49.718,15.48,49.774z"/>
<path fill="#0091D0" d="M16,49.999c-0.073-0.03-0.145-0.061-0.217-0.092C15.855,49.938,15.927,49.968,16,49.999z"/>
<path fill="#ED1C24" d="M49.629,36.99c-4.15,8.87-13.153,15.015-23.593,15.015c-3.552,0-6.938-0.712-10.023-2l-1.676-6.1
	l4.917-0.846c2.098,0.834,4.386,1.292,6.782,1.292c7.222,0,13.47-4.166,16.476-10.225l0.791,4.595L49.629,36.99z"/>
<path fill="#0091D0" d="M49.841,36.525c-0.057,0.128-0.115,0.255-0.174,0.382C49.726,36.78,49.784,36.652,49.841,36.525z"/>
<path fill="#0091D0" d="M50.066,36.005c-0.031,0.073-0.061,0.145-0.092,0.217C50.004,36.15,50.035,36.077,50.066,36.005z"/>
<path fill="#C6D92D" d="M37.056,2.376c8.87,4.15,15.015,13.153,15.015,23.593c0,3.552-0.712,6.938-2,10.023l-6.1,1.676l-0.846-4.917
	c0.834-2.098,1.292-4.386,1.292-6.782c0-7.222-4.166-13.47-10.225-16.475l4.595-0.791L37.056,2.376z"/>
<path fill="#0091D0" d="M36.591,2.164c0.128,0.057,0.255,0.115,0.382,0.174C36.846,2.278,36.719,2.221,36.591,2.164z"/>
<path fill="#0091D0" d="M36.071,1.939C36.144,1.97,36.216,2,36.289,2.031C36.217,2,36.144,1.97,36.071,1.939z"/>
<path fill="#F7EC00" d="M26.036-0.067c3.552,0,6.938,0.712,10.023,2l1.676,6.1L32.817,8.88c-2.098-0.834-4.386-1.292-6.782-1.292
	c-7.222,0-13.47,4.166-16.475,10.225L8.77,13.217l-6.327,1.732C6.593,6.079,15.596-0.067,26.036-0.067z"/>
<path fill="#F9C51D" stroke="#F9C51D" stroke-width="0.5" stroke-miterlimit="2.6131" d="M14.412,33.347h0.59v6.912
	c-0.2-0.15-0.396-0.305-0.59-0.463V33.347z"/>
<path fill="#F9C51D" stroke="#F9C51D" stroke-width="0.5" stroke-miterlimit="2.6131" d="M22.457,33.347h0.59v10.348
	c-0.198-0.032-0.394-0.068-0.59-0.106V33.347z"/>
<path fill="#F9C51D" stroke="#F9C51D" stroke-width="0.5" stroke-miterlimit="2.6131" d="M18.41,31.255h0.618v11.299
	c-0.208-0.086-0.414-0.175-0.618-0.268V31.255z"/>
<path fill="#F9C51D" stroke="#FFFFFF" stroke-width="0.5" stroke-miterlimit="2.6131" d="M14.206,33.062
	c0.123-0.677,0.214-1.934-0.193-2.406L12.758,29.2C12.703,30.582,12.619,32.934,14.206,33.062z"/>
<path fill="#F9C51D" stroke="#FFFFFF" stroke-width="0.5" stroke-miterlimit="2.6131" d="M14.206,29.354
	c0.123-0.677,0.214-1.934-0.193-2.406l-1.255-1.456C12.703,26.874,12.619,29.227,14.206,29.354z"/>
<path fill="#F9C51D" stroke="#FFFFFF" stroke-width="0.5" stroke-miterlimit="2.6131" d="M14.206,25.235
	c0.123-0.677,0.214-1.934-0.193-2.406l-1.255-1.456C12.703,22.755,12.619,25.108,14.206,25.235z"/>
<path fill="#F9C51D" stroke="#FFFFFF" stroke-width="0.5" stroke-miterlimit="2.6131" d="M14.412,21.528
	c0.123-0.677,0.214-1.934-0.193-2.406l-1.255-1.456C12.909,19.048,12.825,21.401,14.412,21.528z"/>
<path fill="#F9C51D" stroke="#FFFFFF" stroke-width="0.5" stroke-miterlimit="2.6131" d="M15.025,18.127
	c0.261-0.637,0.612-1.847,0.313-2.393l-0.924-1.686C14.071,15.388,13.5,17.672,15.025,18.127z"/>
<path fill="#F9C51D" stroke="#FFFFFF" stroke-width="1.4998" stroke-miterlimit="2.6131" d="M18.75,5.932
	c-0.491,1.293-1.75,4.794-0.057,5.41C20.233,10.61,19.501,8.263,18.75,5.932z"/>
<path fill="#F9C51D" stroke="#FFFFFF" stroke-width="0.5" stroke-miterlimit="2.6131" d="M23.249,33.062
	c-0.123-0.677-0.214-1.934,0.193-2.406l1.255-1.456C24.752,30.582,24.836,32.934,23.249,33.062z"/>
<path fill="#F9C51D" stroke="#FFFFFF" stroke-width="0.5" stroke-miterlimit="2.6131" d="M23.249,29.354
	c-0.123-0.677-0.214-1.934,0.193-2.406l1.255-1.456C24.752,26.874,24.836,29.227,23.249,29.354z"/>
<path fill="#F9C51D" stroke="#FFFFFF" stroke-width="0.5" stroke-miterlimit="2.6131" d="M23.249,25.235
	c-0.123-0.677-0.214-1.934,0.193-2.406l1.255-1.456C24.752,22.755,24.836,25.108,23.249,25.235z"/>
<path fill="#F9C51D" stroke="#FFFFFF" stroke-width="0.5" stroke-miterlimit="2.6131" d="M23.043,21.528
	c-0.123-0.677-0.214-1.934,0.193-2.406l1.255-1.456C24.547,19.048,24.63,21.401,23.043,21.528z"/>
<path fill="#F9C51D" stroke="#FFFFFF" stroke-width="0.5" stroke-miterlimit="2.6131" d="M22.43,18.127
	c-0.261-0.637-0.612-1.847-0.313-2.393l0.924-1.686C23.384,15.388,23.956,17.672,22.43,18.127z"/>
<path fill="#F9C51D" stroke="#FFFFFF" stroke-width="0.5" stroke-miterlimit="2.6131" d="M15.105,33.062
	c-0.123-0.677-0.214-1.934,0.193-2.406l1.073-1.245c0.057,0.213,0.124,0.416,0.205,0.604C16.585,31.352,16.408,32.957,15.105,33.062
	z"/>
<path fill="#F9C51D" stroke="#FFFFFF" stroke-width="0.5" stroke-miterlimit="2.6131" d="M15.105,29.354
	c-0.123-0.677-0.214-1.934,0.193-2.406l1.255-1.456c0.011,0.267,0.022,0.572,0.023,0.888l-0.324-0.383
	c-0.128,0.605-0.172,1.616-0.043,2.583C15.989,29.012,15.643,29.311,15.105,29.354z"/>
<path fill="#F9C51D" stroke="#FFFFFF" stroke-width="0.5" stroke-miterlimit="2.6131" d="M15.105,25.235
	c-0.123-0.677-0.214-1.934,0.193-2.406l0.935-1.085c-0.009,0.669,0.01,1.522,0.14,2.303C16.177,24.693,15.802,25.179,15.105,25.235
	L15.105,25.235z M16.517,21.415l0.036-0.041l0.004,0.095L16.517,21.415z"/>
<path fill="#F9C51D" stroke="#FFFFFF" stroke-width="0.5" stroke-miterlimit="2.6131" d="M14.899,21.528
	c-0.123-0.677-0.214-1.934,0.193-2.406l1.163-1.349l0.001,0.017l0.002,0.034l0.001,0.017l0.001,0.017l0.001,0.017l0.001,0.017
	l0.001,0.017l0,0.007l0.001,0.01l0.001,0.017l0.001,0.017l0.001,0.017l0.001,0.017l0.001,0.017l0.001,0.012l0,0.005l0.001,0.017
	l0.001,0.017l0.001,0.017l0.001,0.017l0.001,0.017l0.003,0.031l0,0.003l0.001,0.017l0.001,0.017l0.001,0.017l0.001,0.017
	l0.001,0.017l0.001,0.005l0.001,0.011l0.002,0.017l0.002,0.017l0.002,0.017l0.002,0.017l0.005,0.051l0.002,0.017l0.002,0.017
	l0.002,0.017l0.002,0.017l0.004,0.034l0.002,0.017l0.002,0.017l0.002,0.017l0.002,0.017l0.004,0.034l0.002,0.017l0.002,0.017
	l0.002,0.017l0.002,0.017l0.002,0.017l0.005,0.034l0.002,0.017l0.002,0.017l0.003,0.017l0.002,0.017l0.005,0.033l0.003,0.017
	l0.003,0.017l0.003,0.017l0.003,0.017l0,0C16.336,20.102,16.081,21.433,14.899,21.528z"/>
<path fill="#F9C51D" stroke="#FFFFFF" stroke-width="0.5" stroke-miterlimit="2.6131" d="M22.351,33.062
	c0.123-0.677,0.214-1.934-0.193-2.406l-1.241-1.44l-0.018,0.093C20.844,30.702,20.805,32.937,22.351,33.062z"/>
<path fill="#FFCB05" stroke="#FFFFFF" stroke-width="0.5" stroke-miterlimit="2.6131" d="M22.351,29.354
	c0.123-0.677,0.214-1.934-0.193-2.406l-1.255-1.456c-0.01,0.249-0.021,0.531-0.023,0.825l0.186-0.252
	c0.019,0.475,0.041,1.225-0.011,2.008C21.243,28.764,21.619,29.296,22.351,29.354z"/>
<path fill="#F9C51D" stroke="#FFFFFF" stroke-width="0.5" stroke-miterlimit="2.6131" d="M22.351,25.235
	c0.123-0.677,0.214-1.934-0.193-2.406l-1.073-1.245c0.009,0.597-0.005,1.346-0.1,2.059C21.141,24.481,21.513,25.168,22.351,25.235z"
	/>
<path fill="#F9C51D" stroke="#FFFFFF" stroke-width="0.5" stroke-miterlimit="2.6131" d="M22.557,21.528
	c0.123-0.677,0.214-1.934-0.193-2.406l-1.255-1.456C21.053,19.048,20.97,21.401,22.557,21.528z"/>
<path fill="#0074BC" d="M27.107,9.582c8.257,0.539,14.828,7.257,15.133,15.576H27.107V9.582L27.107,9.582z M31.15,40.064v-4.301
	c-0.322-0.4-0.713-0.608-0.965-1.201c0-1.723,0-3.447,0-5.17c0.188-0.075,0.386-0.083,0.579,0c0,1.466,0,2.932,0,4.398
	c0.138,0.191,0.416,0.193,0.536,0c0-1.473,0-2.946,0-4.419c0.185-0.105,0.376-0.099,0.563,0c0,1.473,0.003,2.944,0.003,4.417
	c0.101,0.191,0.387,0.185,0.507,0.003c0-1.48,0-2.961,0-4.441c0.175-0.097,0.305-0.089,0.493,0c0,1.738,0,3.475,0,5.213
	c-0.272,0.562-0.629,0.801-0.944,1.201v4.312L31.15,40.064L31.15,40.064z M34.441,33.671c-0.354-5.796,2.634-8.08,2.715-6.137
	c0.092,2.191-0.597,3.774-0.756,9.426c-0.47,0.43-1.109,0.787-1.579,1.217L34.441,33.671L34.441,33.671z M30.496,24.396h6.136
	c0-1.778-0.207-2.079-0.987-2.682c0-0.215,0-0.429,0-0.644c1.29-2.207-0.143-4.002-1.588-4.419
	c-0.007-0.179-0.014-0.358-0.021-0.536c0.509-0.202,0.467-1.072-0.467-1.196l-0.005-2.902h-1.137c0,1.824,0,3.647,0,5.471
	c-0.011,0.228-0.078,0.29-0.193,0.322h-1.073v0.429h0.88v1.137h0.343v-0.987h0.472v0.944h0.408c0-0.35,0-0.701,0-1.051l0.3-0.075
	c0-0.376,0-0.751,0-1.126c2.07,0.701,1.837,2.392,1.609,3.604h-0.558l-0.021-0.794l-3.84,0.021v0.837h3.39v0.837h-2.167
	c0,0.293,0,0.586,0,0.88c-0.746,0.123-0.992,0.051-1.137,0.708c-0.162,0.061-0.323,0.172-0.348,0.391L30.496,24.396L30.496,24.396z
	 M42.246,26.231H27.107v15.714C35.41,41.403,42.008,34.613,42.246,26.231z"/>
<path fill="#F9C51D" stroke="#FFFFFF" stroke-width="0.9998" stroke-miterlimit="2.6131" d="M17.915,31.147
	c0.123-0.677,0.579-2.495-0.225-3.446l-1.438-1.703C15.95,27.423,16.114,31.1,17.915,31.147z"/>
<path fill="#F9C51D" stroke="#FFFFFF" stroke-width="0.9998" stroke-miterlimit="2.6131" d="M17.915,25.998
	c0.123-0.677,0.579-2.495-0.225-3.446l-1.438-1.703C15.95,22.274,16.114,25.951,17.915,25.998z"/>
<path fill="#F9C51D" stroke="#FFFFFF" stroke-width="0.9998" stroke-miterlimit="2.6131" d="M17.915,21.055
	c0.123-0.677,0.579-2.495-0.225-3.446l-1.438-1.703C15.95,17.331,16.114,21.009,17.915,21.055z"/>
<path fill="#F9C51D" stroke="#FFFFFF" stroke-width="0.9998" stroke-miterlimit="2.6131" d="M17.915,16.113
	c0.123-0.677,0.579-2.495-0.225-3.446l-1.438-1.703C15.95,12.388,16.114,16.066,17.915,16.113z"/>
<path fill="#F9C51D" stroke="#FFFFFF" stroke-width="0.9998" stroke-miterlimit="2.6131" d="M19.46,31.147
	c-0.123-0.677-0.578-2.495,0.225-3.446l1.438-1.703C21.425,27.423,21.262,31.1,19.46,31.147z"/>
<path fill="#F9C51D" stroke="#FFFFFF" stroke-width="0.9998" stroke-miterlimit="2.6131" d="M19.46,25.998
	c-0.123-0.677-0.578-2.495,0.225-3.446l1.438-1.703C21.425,22.274,21.262,25.951,19.46,25.998z"/>
<path fill="#F9C51D" stroke="#FFFFFF" stroke-width="0.9998" stroke-miterlimit="2.6131" d="M19.46,21.055
	c-0.123-0.677-0.578-2.495,0.225-3.446l1.438-1.703C21.425,17.331,21.262,21.009,19.46,21.055z"/>
<path fill="#F9C51D" stroke="#FFFFFF" stroke-width="0.9998" stroke-miterlimit="2.6131" d="M19.46,16.113
	c-0.123-0.677-0.578-2.495,0.225-3.446l1.438-1.703C21.425,12.388,21.262,16.066,19.46,16.113z"/>
</svg>
